<?xml version="1.0" encoding="utf-8" standalone="no"?>
<!DOCTYPE svg PUBLIC "-//W3C//DTD SVG 1.1//EN"
  "http://www.w3.org/Graphics/SVG/1.1/DTD/svg11.dtd">
<!-- Created with matplotlib (https://matplotlib.org/) -->
<svg height="216pt" version="1.1" viewBox="0 0 216 216" width="216pt" xmlns="http://www.w3.org/2000/svg" xmlns:xlink="http://www.w3.org/1999/xlink">
 <defs>
  <style type="text/css">
*{stroke-linecap:butt;stroke-linejoin:round;}
  </style>
 </defs>
 <g id="figure_1">
  <g id="patch_1">
   <path d="M 0 216 
L 216 216 
L 216 0 
L 0 0 
z
" style="fill:#ffffff;"/>
  </g>
  <g id="axes_1">
   <g id="PathCollection_1">
    <defs>
     <path d="M 0 -14.142136 
L -12.247449 -7.071068 
L -12.247449 7.071068 
L -0 14.142136 
L 12.247449 7.071068 
L 12.247449 -7.071068 
z
" id="ma6c6f6a5ae" style="stroke:#0000ff;"/>
    </defs>
    <g clip-path="url(#p14a8a4e9c9)">
     <use style="fill:#0000ff;stroke:#0000ff;" x="43.298014" xlink:href="#ma6c6f6a5ae" y="109.080002"/>
     <use style="fill:#0000ff;stroke:#0000ff;" x="172.468575" xlink:href="#ma6c6f6a5ae" y="174.924728"/>
     <use style="fill:#0000ff;stroke:#0000ff;" x="172.468563" xlink:href="#ma6c6f6a5ae" y="43.235272"/>
    </g>
   </g>
   <g id="patch_2">
    <path clip-path="url(#p14a8a4e9c9)" d="M 55.970028 115.704214 
Q 98.723739 146.984154 148.374402 164.730495 
L 149.586058 161.340526 
Q 154.121808 166.148406 158.928056 170.846493 
Q 152.284559 171.861822 145.547204 172.640422 
L 146.75886 169.250453 
Q 96.451938 151.26955 53.135773 119.5781 
L 55.970028 115.704214 
z
" style="stroke:#000000;stroke-linecap:round;"/>
   </g>
   <g id="patch_3">
    <path clip-path="url(#p14a8a4e9c9)" d="M 172.587171 160.633551 
Q 179.788064 114.979379 174.235418 69.326848 
L 170.661755 69.761507 
Q 172.931017 63.56396 174.958292 57.155308 
Q 178.859544 62.628423 182.573967 68.312644 
L 179.000303 68.747303 
Q 184.633873 115.065169 177.328555 161.381395 
L 172.587171 160.633551 
z
" style="stroke:#000000;stroke-linecap:round;"/>
   </g>
   <g id="patch_4">
    <path clip-path="url(#p14a8a4e9c9)" d="M 159.796561 168.300516 
Q 117.042851 137.020576 67.392188 119.274235 
L 66.180531 122.664204 
Q 61.644781 117.856325 56.838533 113.158237 
Q 63.48203 112.142909 70.219386 111.364308 
L 69.007729 114.754277 
Q 119.314651 132.73518 162.630816 164.42663 
L 159.796561 168.300516 
z
" style="stroke:#000000;stroke-linecap:round;"/>
   </g>
   <g id="patch_5">
    <path clip-path="url(#p14a8a4e9c9)" d="M 172.349967 57.526449 
Q 165.149074 103.180621 170.70172 148.833152 
L 174.275383 148.398493 
Q 172.006121 154.59604 169.978846 161.004692 
Q 166.077594 155.531577 162.363171 149.847356 
L 165.936835 149.412697 
Q 160.303265 103.094831 167.608582 56.778605 
L 172.349967 57.526449 
z
" style="stroke:#000000;stroke-linecap:round;"/>
   </g>
   <g id="text_1">
    <g clip-path="url(#p14a8a4e9c9)">
     <!-- A -->
     <defs>
      <path d="M 34.1875 63.1875 
L 20.796875 26.90625 
L 47.609375 26.90625 
z
M 28.609375 72.90625 
L 39.796875 72.90625 
L 67.578125 0 
L 57.328125 0 
L 50.6875 18.703125 
L 17.828125 18.703125 
L 11.1875 0 
L 0.78125 0 
z
" id="DejaVuSans-65"/>
     </defs>
     <g style="fill:#ffffff;" transform="translate(40.561764 111.287502)scale(0.08 -0.08)">
      <use xlink:href="#DejaVuSans-65"/>
     </g>
    </g>
   </g>
   <g id="text_2">
    <g clip-path="url(#p14a8a4e9c9)">
     <!-- B -->
     <defs>
      <path d="M 19.671875 34.8125 
L 19.671875 8.109375 
L 35.5 8.109375 
Q 43.453125 8.109375 47.28125 11.40625 
Q 51.125 14.703125 51.125 21.484375 
Q 51.125 28.328125 47.28125 31.5625 
Q 43.453125 34.8125 35.5 34.8125 
z
M 19.671875 64.796875 
L 19.671875 42.828125 
L 34.28125 42.828125 
Q 41.5 42.828125 45.03125 45.53125 
Q 48.578125 48.25 48.578125 53.8125 
Q 48.578125 59.328125 45.03125 62.0625 
Q 41.5 64.796875 34.28125 64.796875 
z
M 9.8125 72.90625 
L 35.015625 72.90625 
Q 46.296875 72.90625 52.390625 68.21875 
Q 58.5 63.53125 58.5 54.890625 
Q 58.5 48.1875 55.375 44.234375 
Q 52.25 40.28125 46.1875 39.3125 
Q 53.46875 37.75 57.5 32.78125 
Q 61.53125 27.828125 61.53125 20.40625 
Q 61.53125 10.640625 54.890625 5.3125 
Q 48.25 0 35.984375 0 
L 9.8125 0 
z
" id="DejaVuSans-66"/>
     </defs>
     <g style="fill:#ffffff;" transform="translate(169.7242 177.132228)scale(0.08 -0.08)">
      <use xlink:href="#DejaVuSans-66"/>
     </g>
    </g>
   </g>
   <g id="text_3">
    <g clip-path="url(#p14a8a4e9c9)">
     <!-- C -->
     <defs>
      <path d="M 64.40625 67.28125 
L 64.40625 56.890625 
Q 59.421875 61.53125 53.78125 63.8125 
Q 48.140625 66.109375 41.796875 66.109375 
Q 29.296875 66.109375 22.65625 58.46875 
Q 16.015625 50.828125 16.015625 36.375 
Q 16.015625 21.96875 22.65625 14.328125 
Q 29.296875 6.6875 41.796875 6.6875 
Q 48.140625 6.6875 53.78125 8.984375 
Q 59.421875 11.28125 64.40625 15.921875 
L 64.40625 5.609375 
Q 59.234375 2.09375 53.4375 0.328125 
Q 47.65625 -1.421875 41.21875 -1.421875 
Q 24.65625 -1.421875 15.125 8.703125 
Q 5.609375 18.84375 5.609375 36.375 
Q 5.609375 53.953125 15.125 64.078125 
Q 24.65625 74.21875 41.21875 74.21875 
Q 47.75 74.21875 53.53125 72.484375 
Q 59.328125 70.75 64.40625 67.28125 
z
" id="DejaVuSans-67"/>
     </defs>
     <g style="fill:#ffffff;" transform="translate(169.675438 45.442772)scale(0.08 -0.08)">
      <use xlink:href="#DejaVuSans-67"/>
     </g>
    </g>
   </g>
  </g>
 </g>
 <defs>
  <clipPath id="p14a8a4e9c9">
   <rect height="166.32" width="167.4" x="27" y="25.92"/>
  </clipPath>
 </defs>
</svg>
