<?xml version="1.0" encoding="utf-8" standalone="no"?>
<!DOCTYPE svg PUBLIC "-//W3C//DTD SVG 1.1//EN"
  "http://www.w3.org/Graphics/SVG/1.1/DTD/svg11.dtd">
<svg xmlns:xlink="http://www.w3.org/1999/xlink" width="216pt" height="72pt" viewBox="0 0 216 72" xmlns="http://www.w3.org/2000/svg" version="1.1">
 <metadata>
  <rdf:RDF xmlns:dc="http://purl.org/dc/elements/1.1/" xmlns:cc="http://creativecommons.org/ns#" xmlns:rdf="http://www.w3.org/1999/02/22-rdf-syntax-ns#">
   <cc:Work>
    <dc:type rdf:resource="http://purl.org/dc/dcmitype/StillImage"/>
    <dc:date>2023-07-28T21:00:28.608833</dc:date>
    <dc:format>image/svg+xml</dc:format>
    <dc:creator>
     <cc:Agent>
      <dc:title>Matplotlib v3.7.2, https://matplotlib.org/</dc:title>
     </cc:Agent>
    </dc:creator>
   </cc:Work>
  </rdf:RDF>
 </metadata>
 <defs>
  <style type="text/css">*{stroke-linejoin: round; stroke-linecap: butt}</style>
 </defs>
 <g id="figure_1">
  <g id="patch_1">
   <path d="M 0 72 
L 216 72 
L 216 0 
L 0 0 
z
" style="fill: #ffffff"/>
  </g>
  <g id="axes_1">
   <g id="patch_2">
    <path d="M 55.825049 36.493937 
Q 104.801725 44.318126 153.776775 38.176142 
L 153.328806 34.604123 
Q 159.542446 36.849227 165.956764 38.863368 
Q 160.489738 42.775705 154.822035 46.510855 
L 154.374066 42.938835 
Q 104.720139 49.165957 55.067835 41.233834 
L 55.825049 36.493937 
z
" clip-path="url(#pc68eeca5d7)" style="stroke: #000000; stroke-linecap: round"/>
   </g>
   <g id="patch_3">
    <path d="M 165.574951 36.226063 
Q 116.598275 28.401874 67.623225 34.543858 
L 68.071194 38.115877 
Q 61.857554 35.870773 55.443236 33.856632 
Q 60.910262 29.944295 66.577965 26.209145 
L 67.025934 29.781165 
Q 116.679861 23.554043 166.332165 31.486166 
L 165.574951 36.226063 
z
" clip-path="url(#pc68eeca5d7)" style="stroke: #000000; stroke-linecap: round"/>
   </g>
   <g id="PathCollection_1">
    <defs>
     <path id="maaa477e252" d="M 0 -14.142136 
L -12.247449 -7.071068 
L -12.247449 7.071068 
L -0 14.142136 
L 12.247449 7.071068 
L 12.247449 -7.071068 
z
" style="stroke: #008000"/>
    </defs>
    <g clip-path="url(#pc68eeca5d7)">
     <use xlink:href="#maaa477e252" x="179.873554" y="36.359997" style="fill: #008000; stroke: #008000"/>
     <use xlink:href="#maaa477e252" x="41.526446" y="36.360003" style="fill: #008000; stroke: #008000"/>
    </g>
   </g>
   <g id="text_1">
    <g clip-path="url(#pc68eeca5d7)">
     <!-- N004 -->
     <g style="fill: #ffffff" transform="translate(30.898946 38.567503) scale(0.08 -0.08)">
      <defs>
       <path id="DejaVuSans-4e" d="M 628 4666 
L 1478 4666 
L 3547 763 
L 3547 4666 
L 4159 4666 
L 4159 0 
L 3309 0 
L 1241 3903 
L 1241 0 
L 628 0 
L 628 4666 
z
" transform="scale(0.015625)"/>
       <path id="DejaVuSans-30" d="M 2034 4250 
Q 1547 4250 1301 3770 
Q 1056 3291 1056 2328 
Q 1056 1369 1301 889 
Q 1547 409 2034 409 
Q 2525 409 2770 889 
Q 3016 1369 3016 2328 
Q 3016 3291 2770 3770 
Q 2525 4250 2034 4250 
z
M 2034 4750 
Q 2819 4750 3233 4129 
Q 3647 3509 3647 2328 
Q 3647 1150 3233 529 
Q 2819 -91 2034 -91 
Q 1250 -91 836 529 
Q 422 1150 422 2328 
Q 422 3509 836 4129 
Q 1250 4750 2034 4750 
z
" transform="scale(0.015625)"/>
       <path id="DejaVuSans-34" d="M 2419 4116 
L 825 1625 
L 2419 1625 
L 2419 4116 
z
M 2253 4666 
L 3047 4666 
L 3047 1625 
L 3713 1625 
L 3713 1100 
L 3047 1100 
L 3047 0 
L 2419 0 
L 2419 1100 
L 313 1100 
L 313 1709 
L 2253 4666 
z
" transform="scale(0.015625)"/>
      </defs>
      <use xlink:href="#DejaVuSans-4e"/>
      <use xlink:href="#DejaVuSans-30" x="74.804688"/>
      <use xlink:href="#DejaVuSans-30" x="138.427734"/>
      <use xlink:href="#DejaVuSans-34" x="202.050781"/>
     </g>
    </g>
   </g>
   <g id="text_2">
    <g clip-path="url(#pc68eeca5d7)">
     <!-- N003 -->
     <g style="fill: #ffffff" transform="translate(169.246054 38.567497) scale(0.08 -0.08)">
      <defs>
       <path id="DejaVuSans-33" d="M 2597 2516 
Q 3050 2419 3304 2112 
Q 3559 1806 3559 1356 
Q 3559 666 3084 287 
Q 2609 -91 1734 -91 
Q 1441 -91 1130 -33 
Q 819 25 488 141 
L 488 750 
Q 750 597 1062 519 
Q 1375 441 1716 441 
Q 2309 441 2620 675 
Q 2931 909 2931 1356 
Q 2931 1769 2642 2001 
Q 2353 2234 1838 2234 
L 1294 2234 
L 1294 2753 
L 1863 2753 
Q 2328 2753 2575 2939 
Q 2822 3125 2822 3475 
Q 2822 3834 2567 4026 
Q 2313 4219 1838 4219 
Q 1578 4219 1281 4162 
Q 984 4106 628 3988 
L 628 4550 
Q 988 4650 1302 4700 
Q 1616 4750 1894 4750 
Q 2613 4750 3031 4423 
Q 3450 4097 3450 3541 
Q 3450 3153 3228 2886 
Q 3006 2619 2597 2516 
z
" transform="scale(0.015625)"/>
      </defs>
      <use xlink:href="#DejaVuSans-4e"/>
      <use xlink:href="#DejaVuSans-30" x="74.804688"/>
      <use xlink:href="#DejaVuSans-30" x="138.427734"/>
      <use xlink:href="#DejaVuSans-33" x="202.050781"/>
     </g>
    </g>
   </g>
   <g id="text_3">
    <g clip-path="url(#pc68eeca5d7)">
     <!-- N004 -->
     <g style="fill: #ffffff" transform="translate(30.898946 38.567503) scale(0.08 -0.08)">
      <use xlink:href="#DejaVuSans-4e"/>
      <use xlink:href="#DejaVuSans-30" x="74.804688"/>
      <use xlink:href="#DejaVuSans-30" x="138.427734"/>
      <use xlink:href="#DejaVuSans-34" x="202.050781"/>
     </g>
    </g>
   </g>
   <g id="text_4">
    <g clip-path="url(#pc68eeca5d7)">
     <!-- N003 -->
     <g style="fill: #ffffff" transform="translate(169.246054 38.567497) scale(0.08 -0.08)">
      <use xlink:href="#DejaVuSans-4e"/>
      <use xlink:href="#DejaVuSans-30" x="74.804688"/>
      <use xlink:href="#DejaVuSans-30" x="138.427734"/>
      <use xlink:href="#DejaVuSans-33" x="202.050781"/>
     </g>
    </g>
   </g>
  </g>
 </g>
 <defs>
  <clipPath id="pc68eeca5d7">
   <rect x="27" y="8.64" width="167.4" height="55.44"/>
  </clipPath>
 </defs>
</svg>
