<?xml version="1.0" encoding="utf-8" standalone="no"?>
<!DOCTYPE svg PUBLIC "-//W3C//DTD SVG 1.1//EN"
  "http://www.w3.org/Graphics/SVG/1.1/DTD/svg11.dtd">
<!-- Created with matplotlib (https://matplotlib.org/) -->
<svg height="72pt" version="1.1" viewBox="0 0 216 72" width="216pt" xmlns="http://www.w3.org/2000/svg" xmlns:xlink="http://www.w3.org/1999/xlink">
 <defs>
  <style type="text/css">
*{stroke-linecap:butt;stroke-linejoin:round;}
  </style>
 </defs>
 <g id="figure_1">
  <g id="patch_1">
   <path d="M 0 72 
L 216 72 
L 216 0 
L 0 0 
z
" style="fill:#ffffff;"/>
  </g>
  <g id="axes_1">
   <g id="PathCollection_1">
    <defs>
     <path d="M 0 -14.142136 
L -12.247449 -7.071068 
L -12.247449 7.071068 
L -0 14.142136 
L 12.247449 7.071068 
L 12.247449 -7.071068 
z
" id="mf98c14e2b8" style="stroke:#008000;"/>
    </defs>
    <g clip-path="url(#pf6c4d75fce)">
     <use style="fill:#008000;stroke:#008000;" x="41.526446" xlink:href="#mf98c14e2b8" y="36.360006"/>
     <use style="fill:#008000;stroke:#008000;" x="179.873554" xlink:href="#mf98c14e2b8" y="36.359994"/>
    </g>
   </g>
   <g id="patch_2">
    <path clip-path="url(#pf6c4d75fce)" d="M 55.825049 36.493939 
Q 104.801725 44.318126 153.776775 38.17614 
L 153.328806 34.604121 
Q 159.542446 36.849226 165.956764 38.863366 
Q 160.489739 42.775703 154.822035 46.510853 
L 154.374067 42.938833 
Q 104.720139 49.165957 55.067835 41.233836 
L 55.825049 36.493939 
z
" style="stroke:#000000;stroke-linecap:round;"/>
   </g>
   <g id="patch_3">
    <path clip-path="url(#pf6c4d75fce)" d="M 165.574951 36.226061 
Q 116.598275 28.401874 67.623225 34.54386 
L 68.071194 38.115879 
Q 61.857554 35.870774 55.443236 33.856634 
Q 60.910261 29.944297 66.577965 26.209147 
L 67.025933 29.781167 
Q 116.679861 23.554043 166.332165 31.486164 
L 165.574951 36.226061 
z
" style="stroke:#000000;stroke-linecap:round;"/>
   </g>
   <g id="text_1">
    <g clip-path="url(#pf6c4d75fce)">
     <!-- N013 -->
     <defs>
      <path d="M 9.8125 72.90625 
L 23.09375 72.90625 
L 55.421875 11.921875 
L 55.421875 72.90625 
L 64.984375 72.90625 
L 64.984375 0 
L 51.703125 0 
L 19.390625 60.984375 
L 19.390625 0 
L 9.8125 0 
z
" id="DejaVuSans-78"/>
      <path d="M 31.78125 66.40625 
Q 24.171875 66.40625 20.328125 58.90625 
Q 16.5 51.421875 16.5 36.375 
Q 16.5 21.390625 20.328125 13.890625 
Q 24.171875 6.390625 31.78125 6.390625 
Q 39.453125 6.390625 43.28125 13.890625 
Q 47.125 21.390625 47.125 36.375 
Q 47.125 51.421875 43.28125 58.90625 
Q 39.453125 66.40625 31.78125 66.40625 
z
M 31.78125 74.21875 
Q 44.046875 74.21875 50.515625 64.515625 
Q 56.984375 54.828125 56.984375 36.375 
Q 56.984375 17.96875 50.515625 8.265625 
Q 44.046875 -1.421875 31.78125 -1.421875 
Q 19.53125 -1.421875 13.0625 8.265625 
Q 6.59375 17.96875 6.59375 36.375 
Q 6.59375 54.828125 13.0625 64.515625 
Q 19.53125 74.21875 31.78125 74.21875 
z
" id="DejaVuSans-48"/>
      <path d="M 12.40625 8.296875 
L 28.515625 8.296875 
L 28.515625 63.921875 
L 10.984375 60.40625 
L 10.984375 69.390625 
L 28.421875 72.90625 
L 38.28125 72.90625 
L 38.28125 8.296875 
L 54.390625 8.296875 
L 54.390625 0 
L 12.40625 0 
z
" id="DejaVuSans-49"/>
      <path d="M 40.578125 39.3125 
Q 47.65625 37.796875 51.625 33 
Q 55.609375 28.21875 55.609375 21.1875 
Q 55.609375 10.40625 48.1875 4.484375 
Q 40.765625 -1.421875 27.09375 -1.421875 
Q 22.515625 -1.421875 17.65625 -0.515625 
Q 12.796875 0.390625 7.625 2.203125 
L 7.625 11.71875 
Q 11.71875 9.328125 16.59375 8.109375 
Q 21.484375 6.890625 26.8125 6.890625 
Q 36.078125 6.890625 40.9375 10.546875 
Q 45.796875 14.203125 45.796875 21.1875 
Q 45.796875 27.640625 41.28125 31.265625 
Q 36.765625 34.90625 28.71875 34.90625 
L 20.21875 34.90625 
L 20.21875 43.015625 
L 29.109375 43.015625 
Q 36.375 43.015625 40.234375 45.921875 
Q 44.09375 48.828125 44.09375 54.296875 
Q 44.09375 59.90625 40.109375 62.90625 
Q 36.140625 65.921875 28.71875 65.921875 
Q 24.65625 65.921875 20.015625 65.03125 
Q 15.375 64.15625 9.8125 62.3125 
L 9.8125 71.09375 
Q 15.4375 72.65625 20.34375 73.4375 
Q 25.25 74.21875 29.59375 74.21875 
Q 40.828125 74.21875 47.359375 69.109375 
Q 53.90625 64.015625 53.90625 55.328125 
Q 53.90625 49.265625 50.4375 45.09375 
Q 46.96875 40.921875 40.578125 39.3125 
z
" id="DejaVuSans-51"/>
     </defs>
     <g style="fill:#ffffff;" transform="translate(30.898946 38.567506)scale(0.08 -0.08)">
      <use xlink:href="#DejaVuSans-78"/>
      <use x="74.804688" xlink:href="#DejaVuSans-48"/>
      <use x="138.427734" xlink:href="#DejaVuSans-49"/>
      <use x="202.050781" xlink:href="#DejaVuSans-51"/>
     </g>
    </g>
   </g>
   <g id="text_2">
    <g clip-path="url(#pf6c4d75fce)">
     <!-- N011 -->
     <g style="fill:#ffffff;" transform="translate(169.246054 38.567494)scale(0.08 -0.08)">
      <use xlink:href="#DejaVuSans-78"/>
      <use x="74.804688" xlink:href="#DejaVuSans-48"/>
      <use x="138.427734" xlink:href="#DejaVuSans-49"/>
      <use x="202.050781" xlink:href="#DejaVuSans-49"/>
     </g>
    </g>
   </g>
   <g id="text_3">
    <g clip-path="url(#pf6c4d75fce)">
     <!-- N013 -->
     <g style="fill:#ffffff;" transform="translate(30.898946 38.567506)scale(0.08 -0.08)">
      <use xlink:href="#DejaVuSans-78"/>
      <use x="74.804688" xlink:href="#DejaVuSans-48"/>
      <use x="138.427734" xlink:href="#DejaVuSans-49"/>
      <use x="202.050781" xlink:href="#DejaVuSans-51"/>
     </g>
    </g>
   </g>
   <g id="text_4">
    <g clip-path="url(#pf6c4d75fce)">
     <!-- N011 -->
     <g style="fill:#ffffff;" transform="translate(169.246054 38.567494)scale(0.08 -0.08)">
      <use xlink:href="#DejaVuSans-78"/>
      <use x="74.804688" xlink:href="#DejaVuSans-48"/>
      <use x="138.427734" xlink:href="#DejaVuSans-49"/>
      <use x="202.050781" xlink:href="#DejaVuSans-49"/>
     </g>
    </g>
   </g>
  </g>
 </g>
 <defs>
  <clipPath id="pf6c4d75fce">
   <rect height="55.44" width="167.4" x="27" y="8.64"/>
  </clipPath>
 </defs>
</svg>
