<?xml version="1.0" encoding="utf-8" standalone="no"?>
<!DOCTYPE svg PUBLIC "-//W3C//DTD SVG 1.1//EN"
  "http://www.w3.org/Graphics/SVG/1.1/DTD/svg11.dtd">
<svg xmlns:xlink="http://www.w3.org/1999/xlink" width="216pt" height="72pt" viewBox="0 0 216 72" xmlns="http://www.w3.org/2000/svg" version="1.1">
 <metadata>
  <rdf:RDF xmlns:dc="http://purl.org/dc/elements/1.1/" xmlns:cc="http://creativecommons.org/ns#" xmlns:rdf="http://www.w3.org/1999/02/22-rdf-syntax-ns#">
   <cc:Work>
    <dc:type rdf:resource="http://purl.org/dc/dcmitype/StillImage"/>
    <dc:date>2023-08-14T18:43:30.772659</dc:date>
    <dc:format>image/svg+xml</dc:format>
    <dc:creator>
     <cc:Agent>
      <dc:title>Matplotlib v3.7.2, https://matplotlib.org/</dc:title>
     </cc:Agent>
    </dc:creator>
   </cc:Work>
  </rdf:RDF>
 </metadata>
 <defs>
  <style type="text/css">*{stroke-linejoin: round; stroke-linecap: butt}</style>
 </defs>
 <g id="figure_1">
  <g id="patch_1">
   <path d="M 0 72 
L 216 72 
L 216 0 
L 0 0 
z
" style="fill: #ffffff"/>
  </g>
  <g id="axes_1">
   <g id="patch_2">
    <path d="M 55.825049 36.493937 
Q 104.801725 44.318126 153.776775 38.176142 
L 153.328806 34.604123 
Q 159.542446 36.849227 165.956764 38.863368 
Q 160.489738 42.775705 154.822035 46.510855 
L 154.374066 42.938835 
Q 104.720139 49.165957 55.067835 41.233834 
L 55.825049 36.493937 
z
" clip-path="url(#pd187e7872b)" style="stroke: #000000; stroke-linecap: round"/>
   </g>
   <g id="patch_3">
    <path d="M 165.574951 36.226063 
Q 116.598275 28.401874 67.623225 34.543858 
L 68.071194 38.115877 
Q 61.857554 35.870773 55.443236 33.856632 
Q 60.910262 29.944295 66.577965 26.209145 
L 67.025934 29.781165 
Q 116.679861 23.554043 166.332165 31.486166 
L 165.574951 36.226063 
z
" clip-path="url(#pd187e7872b)" style="stroke: #000000; stroke-linecap: round"/>
   </g>
   <g id="PathCollection_1">
    <defs>
     <path id="m63dc273530" d="M 0 -14.142136 
L -12.247449 -7.071068 
L -12.247449 7.071068 
L -0 14.142136 
L 12.247449 7.071068 
L 12.247449 -7.071068 
z
" style="stroke: #008000"/>
    </defs>
    <g clip-path="url(#pd187e7872b)">
     <use xlink:href="#m63dc273530" x="41.526446" y="36.360003" style="fill: #008000; stroke: #008000"/>
     <use xlink:href="#m63dc273530" x="179.873554" y="36.359997" style="fill: #008000; stroke: #008000"/>
    </g>
   </g>
   <g id="text_1">
    <g clip-path="url(#pd187e7872b)">
     <!-- N021 -->
     <g style="fill: #ffffff" transform="translate(30.898946 38.567503) scale(0.08 -0.08)">
      <defs>
       <path id="DejaVuSans-4e" d="M 628 4666 
L 1478 4666 
L 3547 763 
L 3547 4666 
L 4159 4666 
L 4159 0 
L 3309 0 
L 1241 3903 
L 1241 0 
L 628 0 
L 628 4666 
z
" transform="scale(0.015625)"/>
       <path id="DejaVuSans-30" d="M 2034 4250 
Q 1547 4250 1301 3770 
Q 1056 3291 1056 2328 
Q 1056 1369 1301 889 
Q 1547 409 2034 409 
Q 2525 409 2770 889 
Q 3016 1369 3016 2328 
Q 3016 3291 2770 3770 
Q 2525 4250 2034 4250 
z
M 2034 4750 
Q 2819 4750 3233 4129 
Q 3647 3509 3647 2328 
Q 3647 1150 3233 529 
Q 2819 -91 2034 -91 
Q 1250 -91 836 529 
Q 422 1150 422 2328 
Q 422 3509 836 4129 
Q 1250 4750 2034 4750 
z
" transform="scale(0.015625)"/>
       <path id="DejaVuSans-32" d="M 1228 531 
L 3431 531 
L 3431 0 
L 469 0 
L 469 531 
Q 828 903 1448 1529 
Q 2069 2156 2228 2338 
Q 2531 2678 2651 2914 
Q 2772 3150 2772 3378 
Q 2772 3750 2511 3984 
Q 2250 4219 1831 4219 
Q 1534 4219 1204 4116 
Q 875 4013 500 3803 
L 500 4441 
Q 881 4594 1212 4672 
Q 1544 4750 1819 4750 
Q 2544 4750 2975 4387 
Q 3406 4025 3406 3419 
Q 3406 3131 3298 2873 
Q 3191 2616 2906 2266 
Q 2828 2175 2409 1742 
Q 1991 1309 1228 531 
z
" transform="scale(0.015625)"/>
       <path id="DejaVuSans-31" d="M 794 531 
L 1825 531 
L 1825 4091 
L 703 3866 
L 703 4441 
L 1819 4666 
L 2450 4666 
L 2450 531 
L 3481 531 
L 3481 0 
L 794 0 
L 794 531 
z
" transform="scale(0.015625)"/>
      </defs>
      <use xlink:href="#DejaVuSans-4e"/>
      <use xlink:href="#DejaVuSans-30" x="74.804688"/>
      <use xlink:href="#DejaVuSans-32" x="138.427734"/>
      <use xlink:href="#DejaVuSans-31" x="202.050781"/>
     </g>
    </g>
   </g>
   <g id="text_2">
    <g clip-path="url(#pd187e7872b)">
     <!-- N022 -->
     <g style="fill: #ffffff" transform="translate(169.246054 38.567497) scale(0.08 -0.08)">
      <use xlink:href="#DejaVuSans-4e"/>
      <use xlink:href="#DejaVuSans-30" x="74.804688"/>
      <use xlink:href="#DejaVuSans-32" x="138.427734"/>
      <use xlink:href="#DejaVuSans-32" x="202.050781"/>
     </g>
    </g>
   </g>
   <g id="text_3">
    <g clip-path="url(#pd187e7872b)">
     <!-- N021 -->
     <g style="fill: #ffffff" transform="translate(30.898946 38.567503) scale(0.08 -0.08)">
      <use xlink:href="#DejaVuSans-4e"/>
      <use xlink:href="#DejaVuSans-30" x="74.804688"/>
      <use xlink:href="#DejaVuSans-32" x="138.427734"/>
      <use xlink:href="#DejaVuSans-31" x="202.050781"/>
     </g>
    </g>
   </g>
   <g id="text_4">
    <g clip-path="url(#pd187e7872b)">
     <!-- N022 -->
     <g style="fill: #ffffff" transform="translate(169.246054 38.567497) scale(0.08 -0.08)">
      <use xlink:href="#DejaVuSans-4e"/>
      <use xlink:href="#DejaVuSans-30" x="74.804688"/>
      <use xlink:href="#DejaVuSans-32" x="138.427734"/>
      <use xlink:href="#DejaVuSans-32" x="202.050781"/>
     </g>
    </g>
   </g>
  </g>
 </g>
 <defs>
  <clipPath id="pd187e7872b">
   <rect x="27" y="8.64" width="167.4" height="55.44"/>
  </clipPath>
 </defs>
</svg>
