<?xml version="1.0" encoding="utf-8" standalone="no"?>
<!DOCTYPE svg PUBLIC "-//W3C//DTD SVG 1.1//EN"
  "http://www.w3.org/Graphics/SVG/1.1/DTD/svg11.dtd">
<!-- Created with matplotlib (https://matplotlib.org/) -->
<svg height="216pt" version="1.1" viewBox="0 0 216 216" width="216pt" xmlns="http://www.w3.org/2000/svg" xmlns:xlink="http://www.w3.org/1999/xlink">
 <defs>
  <style type="text/css">
*{stroke-linecap:butt;stroke-linejoin:round;}
  </style>
 </defs>
 <g id="figure_1">
  <g id="patch_1">
   <path d="M 0 216 
L 216 216 
L 216 0 
L 0 0 
z
" style="fill:#ffffff;"/>
  </g>
  <g id="axes_1">
   <g id="PathCollection_1">
    <defs>
     <path d="M 0 -14.142136 
L -12.247449 -7.071068 
L -12.247449 7.071068 
L -0 14.142136 
L 12.247449 7.071068 
L 12.247449 -7.071068 
z
" id="m15a4c664ed" style="stroke:#008000;"/>
    </defs>
    <g clip-path="url(#pa3eab3a5f3)">
     <use style="fill:#008000;stroke:#008000;" x="110.699999" xlink:href="#m15a4c664ed" y="40.352727"/>
     <use style="fill:#008000;stroke:#008000;" x="179.873554" xlink:href="#m15a4c664ed" y="109.079994"/>
     <use style="fill:#008000;stroke:#008000;" x="110.700003" xlink:href="#m15a4c664ed" y="177.807273"/>
     <use style="fill:#008000;stroke:#008000;" x="41.526446" xlink:href="#m15a4c664ed" y="109.08"/>
    </g>
   </g>
   <g id="patch_2">
    <path clip-path="url(#pa3eab3a5f3)" d="M 51.647516 119.155187 
Q 69.044285 142.192949 91.208944 160.429581 
L 93.496248 157.64961 
Q 96.096969 163.676629 99.128924 169.678648 
Q 92.51088 168.491397 85.871902 166.916181 
L 88.159206 164.13621 
Q 65.555996 145.538748 47.81699 122.047775 
L 51.647516 119.155187 
z
" style="stroke:#000000;stroke-linecap:round;"/>
   </g>
   <g id="patch_3">
    <path clip-path="url(#pa3eab3a5f3)" d="M 120.840486 167.751625 
Q 143.990365 150.50433 162.370073 128.458169 
L 159.604964 126.15292 
Q 165.64869 123.591264 171.670207 120.598219 
Q 170.440147 127.20844 168.821993 133.837084 
L 166.056884 131.531835 
Q 147.313515 154.014201 123.708222 171.600793 
L 120.840486 167.751625 
z
" style="stroke:#000000;stroke-linecap:round;"/>
   </g>
   <g id="patch_4">
    <path clip-path="url(#pa3eab3a5f3)" d="M 110.832414 163.506812 
Q 118.572037 114.977918 112.510039 66.45065 
L 108.937803 66.896892 
Q 111.186244 60.68691 113.202421 54.274967 
Q 117.112998 59.741212 120.845256 65.40942 
L 117.27302 65.855662 
Q 123.419602 115.060036 115.57251 164.262785 
L 110.832414 163.506812 
z
" style="stroke:#000000;stroke-linecap:round;"/>
   </g>
   <g id="patch_5">
    <path clip-path="url(#pa3eab3a5f3)" d="M 100.578933 167.732086 
Q 83.182164 144.694323 61.017505 126.457691 
L 58.730201 129.237663 
Q 56.129481 123.210643 53.097525 117.208624 
Q 59.71557 118.395875 66.354547 119.971092 
L 64.067243 122.751063 
Q 86.670453 141.348525 104.409459 164.839497 
L 100.578933 167.732086 
z
" style="stroke:#000000;stroke-linecap:round;"/>
   </g>
   <g id="patch_6">
    <path clip-path="url(#pa3eab3a5f3)" d="M 169.733071 119.135641 
Q 146.583192 136.382937 128.203484 158.429097 
L 130.968593 160.734347 
Q 124.924867 163.296003 118.90335 166.289048 
Q 120.13341 159.678826 121.751564 153.050183 
L 124.516672 155.355432 
Q 143.260042 132.873066 166.865335 115.286474 
L 169.733071 119.135641 
z
" style="stroke:#000000;stroke-linecap:round;"/>
   </g>
   <g id="patch_7">
    <path clip-path="url(#pa3eab3a5f3)" d="M 110.567588 54.653188 
Q 102.827965 103.182082 108.889963 151.70935 
L 112.462199 151.263108 
Q 110.213758 157.47309 108.197581 163.885033 
Q 104.287004 158.418788 100.554746 152.75058 
L 104.126982 152.304338 
Q 97.9804 103.099964 105.827492 53.897215 
L 110.567588 54.653188 
z
" style="stroke:#000000;stroke-linecap:round;"/>
   </g>
   <g id="text_1">
    <g clip-path="url(#pa3eab3a5f3)">
     <!-- N036 -->
     <defs>
      <path d="M 9.8125 72.90625 
L 23.09375 72.90625 
L 55.421875 11.921875 
L 55.421875 72.90625 
L 64.984375 72.90625 
L 64.984375 0 
L 51.703125 0 
L 19.390625 60.984375 
L 19.390625 0 
L 9.8125 0 
z
" id="DejaVuSans-78"/>
      <path d="M 31.78125 66.40625 
Q 24.171875 66.40625 20.328125 58.90625 
Q 16.5 51.421875 16.5 36.375 
Q 16.5 21.390625 20.328125 13.890625 
Q 24.171875 6.390625 31.78125 6.390625 
Q 39.453125 6.390625 43.28125 13.890625 
Q 47.125 21.390625 47.125 36.375 
Q 47.125 51.421875 43.28125 58.90625 
Q 39.453125 66.40625 31.78125 66.40625 
z
M 31.78125 74.21875 
Q 44.046875 74.21875 50.515625 64.515625 
Q 56.984375 54.828125 56.984375 36.375 
Q 56.984375 17.96875 50.515625 8.265625 
Q 44.046875 -1.421875 31.78125 -1.421875 
Q 19.53125 -1.421875 13.0625 8.265625 
Q 6.59375 17.96875 6.59375 36.375 
Q 6.59375 54.828125 13.0625 64.515625 
Q 19.53125 74.21875 31.78125 74.21875 
z
" id="DejaVuSans-48"/>
      <path d="M 40.578125 39.3125 
Q 47.65625 37.796875 51.625 33 
Q 55.609375 28.21875 55.609375 21.1875 
Q 55.609375 10.40625 48.1875 4.484375 
Q 40.765625 -1.421875 27.09375 -1.421875 
Q 22.515625 -1.421875 17.65625 -0.515625 
Q 12.796875 0.390625 7.625 2.203125 
L 7.625 11.71875 
Q 11.71875 9.328125 16.59375 8.109375 
Q 21.484375 6.890625 26.8125 6.890625 
Q 36.078125 6.890625 40.9375 10.546875 
Q 45.796875 14.203125 45.796875 21.1875 
Q 45.796875 27.640625 41.28125 31.265625 
Q 36.765625 34.90625 28.71875 34.90625 
L 20.21875 34.90625 
L 20.21875 43.015625 
L 29.109375 43.015625 
Q 36.375 43.015625 40.234375 45.921875 
Q 44.09375 48.828125 44.09375 54.296875 
Q 44.09375 59.90625 40.109375 62.90625 
Q 36.140625 65.921875 28.71875 65.921875 
Q 24.65625 65.921875 20.015625 65.03125 
Q 15.375 64.15625 9.8125 62.3125 
L 9.8125 71.09375 
Q 15.4375 72.65625 20.34375 73.4375 
Q 25.25 74.21875 29.59375 74.21875 
Q 40.828125 74.21875 47.359375 69.109375 
Q 53.90625 64.015625 53.90625 55.328125 
Q 53.90625 49.265625 50.4375 45.09375 
Q 46.96875 40.921875 40.578125 39.3125 
z
" id="DejaVuSans-51"/>
      <path d="M 33.015625 40.375 
Q 26.375 40.375 22.484375 35.828125 
Q 18.609375 31.296875 18.609375 23.390625 
Q 18.609375 15.53125 22.484375 10.953125 
Q 26.375 6.390625 33.015625 6.390625 
Q 39.65625 6.390625 43.53125 10.953125 
Q 47.40625 15.53125 47.40625 23.390625 
Q 47.40625 31.296875 43.53125 35.828125 
Q 39.65625 40.375 33.015625 40.375 
z
M 52.59375 71.296875 
L 52.59375 62.3125 
Q 48.875 64.0625 45.09375 64.984375 
Q 41.3125 65.921875 37.59375 65.921875 
Q 27.828125 65.921875 22.671875 59.328125 
Q 17.53125 52.734375 16.796875 39.40625 
Q 19.671875 43.65625 24.015625 45.921875 
Q 28.375 48.1875 33.59375 48.1875 
Q 44.578125 48.1875 50.953125 41.515625 
Q 57.328125 34.859375 57.328125 23.390625 
Q 57.328125 12.15625 50.6875 5.359375 
Q 44.046875 -1.421875 33.015625 -1.421875 
Q 20.359375 -1.421875 13.671875 8.265625 
Q 6.984375 17.96875 6.984375 36.375 
Q 6.984375 53.65625 15.1875 63.9375 
Q 23.390625 74.21875 37.203125 74.21875 
Q 40.921875 74.21875 44.703125 73.484375 
Q 48.484375 72.75 52.59375 71.296875 
z
" id="DejaVuSans-54"/>
     </defs>
     <g style="fill:#ffffff;" transform="translate(30.898946 111.2875)scale(0.08 -0.08)">
      <use xlink:href="#DejaVuSans-78"/>
      <use x="74.804688" xlink:href="#DejaVuSans-48"/>
      <use x="138.427734" xlink:href="#DejaVuSans-51"/>
      <use x="202.050781" xlink:href="#DejaVuSans-54"/>
     </g>
    </g>
   </g>
   <g id="text_2">
    <g clip-path="url(#pa3eab3a5f3)">
     <!-- N035 -->
     <defs>
      <path d="M 10.796875 72.90625 
L 49.515625 72.90625 
L 49.515625 64.59375 
L 19.828125 64.59375 
L 19.828125 46.734375 
Q 21.96875 47.46875 24.109375 47.828125 
Q 26.265625 48.1875 28.421875 48.1875 
Q 40.625 48.1875 47.75 41.5 
Q 54.890625 34.8125 54.890625 23.390625 
Q 54.890625 11.625 47.5625 5.09375 
Q 40.234375 -1.421875 26.90625 -1.421875 
Q 22.3125 -1.421875 17.546875 -0.640625 
Q 12.796875 0.140625 7.71875 1.703125 
L 7.71875 11.625 
Q 12.109375 9.234375 16.796875 8.0625 
Q 21.484375 6.890625 26.703125 6.890625 
Q 35.15625 6.890625 40.078125 11.328125 
Q 45.015625 15.765625 45.015625 23.390625 
Q 45.015625 31 40.078125 35.4375 
Q 35.15625 39.890625 26.703125 39.890625 
Q 22.75 39.890625 18.8125 39.015625 
Q 14.890625 38.140625 10.796875 36.28125 
z
" id="DejaVuSans-53"/>
     </defs>
     <g style="fill:#ffffff;" transform="translate(100.072503 180.014773)scale(0.08 -0.08)">
      <use xlink:href="#DejaVuSans-78"/>
      <use x="74.804688" xlink:href="#DejaVuSans-48"/>
      <use x="138.427734" xlink:href="#DejaVuSans-51"/>
      <use x="202.050781" xlink:href="#DejaVuSans-53"/>
     </g>
    </g>
   </g>
   <g id="text_3">
    <g clip-path="url(#pa3eab3a5f3)">
     <!-- N037 -->
     <defs>
      <path d="M 8.203125 72.90625 
L 55.078125 72.90625 
L 55.078125 68.703125 
L 28.609375 0 
L 18.3125 0 
L 43.21875 64.59375 
L 8.203125 64.59375 
z
" id="DejaVuSans-55"/>
     </defs>
     <g style="fill:#ffffff;" transform="translate(169.246054 111.287494)scale(0.08 -0.08)">
      <use xlink:href="#DejaVuSans-78"/>
      <use x="74.804688" xlink:href="#DejaVuSans-48"/>
      <use x="138.427734" xlink:href="#DejaVuSans-51"/>
      <use x="202.050781" xlink:href="#DejaVuSans-55"/>
     </g>
    </g>
   </g>
   <g id="text_4">
    <g clip-path="url(#pa3eab3a5f3)">
     <!-- N040 -->
     <defs>
      <path d="M 37.796875 64.3125 
L 12.890625 25.390625 
L 37.796875 25.390625 
z
M 35.203125 72.90625 
L 47.609375 72.90625 
L 47.609375 25.390625 
L 58.015625 25.390625 
L 58.015625 17.1875 
L 47.609375 17.1875 
L 47.609375 0 
L 37.796875 0 
L 37.796875 17.1875 
L 4.890625 17.1875 
L 4.890625 26.703125 
z
" id="DejaVuSans-52"/>
     </defs>
     <g style="fill:#ffffff;" transform="translate(100.072499 42.560227)scale(0.08 -0.08)">
      <use xlink:href="#DejaVuSans-78"/>
      <use x="74.804688" xlink:href="#DejaVuSans-48"/>
      <use x="138.427734" xlink:href="#DejaVuSans-52"/>
      <use x="202.050781" xlink:href="#DejaVuSans-48"/>
     </g>
    </g>
   </g>
   <g id="text_5">
    <g clip-path="url(#pa3eab3a5f3)">
     <!-- N036 -->
     <g style="fill:#ffffff;" transform="translate(30.898946 111.2875)scale(0.08 -0.08)">
      <use xlink:href="#DejaVuSans-78"/>
      <use x="74.804688" xlink:href="#DejaVuSans-48"/>
      <use x="138.427734" xlink:href="#DejaVuSans-51"/>
      <use x="202.050781" xlink:href="#DejaVuSans-54"/>
     </g>
    </g>
   </g>
   <g id="text_6">
    <g clip-path="url(#pa3eab3a5f3)">
     <!-- N035 -->
     <g style="fill:#ffffff;" transform="translate(100.072503 180.014773)scale(0.08 -0.08)">
      <use xlink:href="#DejaVuSans-78"/>
      <use x="74.804688" xlink:href="#DejaVuSans-48"/>
      <use x="138.427734" xlink:href="#DejaVuSans-51"/>
      <use x="202.050781" xlink:href="#DejaVuSans-53"/>
     </g>
    </g>
   </g>
   <g id="text_7">
    <g clip-path="url(#pa3eab3a5f3)">
     <!-- N037 -->
     <g style="fill:#ffffff;" transform="translate(169.246054 111.287494)scale(0.08 -0.08)">
      <use xlink:href="#DejaVuSans-78"/>
      <use x="74.804688" xlink:href="#DejaVuSans-48"/>
      <use x="138.427734" xlink:href="#DejaVuSans-51"/>
      <use x="202.050781" xlink:href="#DejaVuSans-55"/>
     </g>
    </g>
   </g>
   <g id="text_8">
    <g clip-path="url(#pa3eab3a5f3)">
     <!-- N040 -->
     <g style="fill:#ffffff;" transform="translate(100.072499 42.560227)scale(0.08 -0.08)">
      <use xlink:href="#DejaVuSans-78"/>
      <use x="74.804688" xlink:href="#DejaVuSans-48"/>
      <use x="138.427734" xlink:href="#DejaVuSans-52"/>
      <use x="202.050781" xlink:href="#DejaVuSans-48"/>
     </g>
    </g>
   </g>
  </g>
 </g>
 <defs>
  <clipPath id="pa3eab3a5f3">
   <rect height="166.32" width="167.4" x="27" y="25.92"/>
  </clipPath>
 </defs>
</svg>
