<?xml version="1.0" encoding="utf-8" standalone="no"?>
<!DOCTYPE svg PUBLIC "-//W3C//DTD SVG 1.1//EN"
  "http://www.w3.org/Graphics/SVG/1.1/DTD/svg11.dtd">
<svg xmlns:xlink="http://www.w3.org/1999/xlink" width="216pt" height="216pt" viewBox="0 0 216 216" xmlns="http://www.w3.org/2000/svg" version="1.1">
 <metadata>
  <rdf:RDF xmlns:dc="http://purl.org/dc/elements/1.1/" xmlns:cc="http://creativecommons.org/ns#" xmlns:rdf="http://www.w3.org/1999/02/22-rdf-syntax-ns#">
   <cc:Work>
    <dc:type rdf:resource="http://purl.org/dc/dcmitype/StillImage"/>
    <dc:date>2023-08-14T18:43:43.028969</dc:date>
    <dc:format>image/svg+xml</dc:format>
    <dc:creator>
     <cc:Agent>
      <dc:title>Matplotlib v3.7.2, https://matplotlib.org/</dc:title>
     </cc:Agent>
    </dc:creator>
   </cc:Work>
  </rdf:RDF>
 </metadata>
 <defs>
  <style type="text/css">*{stroke-linejoin: round; stroke-linecap: butt}</style>
 </defs>
 <g id="figure_1">
  <g id="patch_1">
   <path d="M 0 216 
L 216 216 
L 216 0 
L 0 0 
z
" style="fill: #ffffff"/>
  </g>
  <g id="axes_1">
   <g id="patch_2">
    <path d="M 51.647516 119.155187 
Q 69.044285 142.192949 91.208944 160.429581 
L 93.496248 157.64961 
Q 96.096969 163.676629 99.128924 169.678648 
Q 92.51088 168.491397 85.871902 166.916181 
L 88.159206 164.13621 
Q 65.555996 145.538748 47.81699 122.047775 
L 51.647516 119.155187 
z
" clip-path="url(#p0ab3fb5b07)" style="stroke: #000000; stroke-linecap: round"/>
   </g>
   <g id="patch_3">
    <path d="M 120.840486 167.751625 
Q 143.990365 150.50433 162.370073 128.458169 
L 159.604964 126.15292 
Q 165.64869 123.591264 171.670207 120.598219 
Q 170.440147 127.20844 168.821993 133.837084 
L 166.056884 131.531835 
Q 147.313515 154.014201 123.708222 171.600793 
L 120.840486 167.751625 
z
" clip-path="url(#p0ab3fb5b07)" style="stroke: #000000; stroke-linecap: round"/>
   </g>
   <g id="patch_4">
    <path d="M 120.840486 167.751625 
Q 143.990365 150.50433 162.370073 128.458169 
L 159.604964 126.15292 
Q 165.64869 123.591264 171.670207 120.598219 
Q 170.440147 127.20844 168.821993 133.837084 
L 166.056884 131.531835 
Q 147.313515 154.014201 123.708222 171.600793 
L 120.840486 167.751625 
z
" clip-path="url(#p0ab3fb5b07)" style="stroke: #000000; stroke-linecap: round"/>
   </g>
   <g id="patch_5">
    <path d="M 100.578933 167.732086 
Q 83.182164 144.694323 61.017505 126.457691 
L 58.730201 129.237663 
Q 56.129481 123.210643 53.097525 117.208624 
Q 59.71557 118.395875 66.354547 119.971092 
L 64.067243 122.751063 
Q 86.670453 141.348525 104.409459 164.839497 
L 100.578933 167.732086 
z
" clip-path="url(#p0ab3fb5b07)" style="stroke: #000000; stroke-linecap: round"/>
   </g>
   <g id="patch_6">
    <path d="M 169.752484 99.004808 
Q 152.355716 75.967047 130.191057 57.730417 
L 127.903753 60.510389 
Q 125.303033 54.483369 122.271078 48.481351 
Q 128.889122 49.668601 135.528099 51.243817 
L 133.240795 54.023789 
Q 155.844004 72.621249 173.58301 96.112219 
L 169.752484 99.004808 
z
" clip-path="url(#p0ab3fb5b07)" style="stroke: #000000; stroke-linecap: round"/>
   </g>
   <g id="patch_7">
    <path d="M 169.733071 119.135641 
Q 146.583192 136.382937 128.203484 158.429097 
L 130.968593 160.734347 
Q 124.924867 163.296003 118.90335 166.289048 
Q 120.13341 159.678826 121.751564 153.050183 
L 124.516672 155.355432 
Q 143.260042 132.873066 166.865335 115.286474 
L 169.733071 119.135641 
z
" clip-path="url(#p0ab3fb5b07)" style="stroke: #000000; stroke-linecap: round"/>
   </g>
   <g id="patch_8">
    <path d="M 169.733071 119.135641 
Q 146.583192 136.382937 128.203484 158.429097 
L 130.968593 160.734347 
Q 124.924867 163.296003 118.90335 166.289048 
Q 120.13341 159.678826 121.751564 153.050183 
L 124.516672 155.355432 
Q 143.260042 132.873066 166.865335 115.286474 
L 169.733071 119.135641 
z
" clip-path="url(#p0ab3fb5b07)" style="stroke: #000000; stroke-linecap: round"/>
   </g>
   <g id="patch_9">
    <path d="M 120.821069 50.427913 
Q 138.217837 73.465674 160.382496 91.702304 
L 162.6698 88.922333 
Q 165.27052 94.949352 168.302475 100.95137 
Q 161.684431 99.76412 155.045454 98.188904 
L 157.332757 95.408933 
Q 134.729548 76.811472 116.990543 53.320502 
L 120.821069 50.427913 
z
" clip-path="url(#p0ab3fb5b07)" style="stroke: #000000; stroke-linecap: round"/>
   </g>
   <g id="PathCollection_1">
    <defs>
     <path id="m796a23d601" d="M 0 -14.142136 
L -12.247449 -7.071068 
L -12.247449 7.071068 
L -0 14.142136 
L 12.247449 7.071068 
L 12.247449 -7.071068 
z
" style="stroke: #008000"/>
    </defs>
    <g clip-path="url(#p0ab3fb5b07)">
     <use xlink:href="#m796a23d601" x="110.699999" y="40.352727" style="fill: #008000; stroke: #008000"/>
     <use xlink:href="#m796a23d601" x="110.700003" y="177.807273" style="fill: #008000; stroke: #008000"/>
     <use xlink:href="#m796a23d601" x="41.526446" y="109.08" style="fill: #008000; stroke: #008000"/>
     <use xlink:href="#m796a23d601" x="179.873554" y="109.079994" style="fill: #008000; stroke: #008000"/>
    </g>
   </g>
   <g id="text_1">
    <g clip-path="url(#p0ab3fb5b07)">
     <!-- N049 -->
     <g style="fill: #ffffff" transform="translate(30.898946 111.2875) scale(0.08 -0.08)">
      <defs>
       <path id="DejaVuSans-4e" d="M 628 4666 
L 1478 4666 
L 3547 763 
L 3547 4666 
L 4159 4666 
L 4159 0 
L 3309 0 
L 1241 3903 
L 1241 0 
L 628 0 
L 628 4666 
z
" transform="scale(0.015625)"/>
       <path id="DejaVuSans-30" d="M 2034 4250 
Q 1547 4250 1301 3770 
Q 1056 3291 1056 2328 
Q 1056 1369 1301 889 
Q 1547 409 2034 409 
Q 2525 409 2770 889 
Q 3016 1369 3016 2328 
Q 3016 3291 2770 3770 
Q 2525 4250 2034 4250 
z
M 2034 4750 
Q 2819 4750 3233 4129 
Q 3647 3509 3647 2328 
Q 3647 1150 3233 529 
Q 2819 -91 2034 -91 
Q 1250 -91 836 529 
Q 422 1150 422 2328 
Q 422 3509 836 4129 
Q 1250 4750 2034 4750 
z
" transform="scale(0.015625)"/>
       <path id="DejaVuSans-34" d="M 2419 4116 
L 825 1625 
L 2419 1625 
L 2419 4116 
z
M 2253 4666 
L 3047 4666 
L 3047 1625 
L 3713 1625 
L 3713 1100 
L 3047 1100 
L 3047 0 
L 2419 0 
L 2419 1100 
L 313 1100 
L 313 1709 
L 2253 4666 
z
" transform="scale(0.015625)"/>
       <path id="DejaVuSans-39" d="M 703 97 
L 703 672 
Q 941 559 1184 500 
Q 1428 441 1663 441 
Q 2288 441 2617 861 
Q 2947 1281 2994 2138 
Q 2813 1869 2534 1725 
Q 2256 1581 1919 1581 
Q 1219 1581 811 2004 
Q 403 2428 403 3163 
Q 403 3881 828 4315 
Q 1253 4750 1959 4750 
Q 2769 4750 3195 4129 
Q 3622 3509 3622 2328 
Q 3622 1225 3098 567 
Q 2575 -91 1691 -91 
Q 1453 -91 1209 -44 
Q 966 3 703 97 
z
M 1959 2075 
Q 2384 2075 2632 2365 
Q 2881 2656 2881 3163 
Q 2881 3666 2632 3958 
Q 2384 4250 1959 4250 
Q 1534 4250 1286 3958 
Q 1038 3666 1038 3163 
Q 1038 2656 1286 2365 
Q 1534 2075 1959 2075 
z
" transform="scale(0.015625)"/>
      </defs>
      <use xlink:href="#DejaVuSans-4e"/>
      <use xlink:href="#DejaVuSans-30" x="74.804688"/>
      <use xlink:href="#DejaVuSans-34" x="138.427734"/>
      <use xlink:href="#DejaVuSans-39" x="202.050781"/>
     </g>
    </g>
   </g>
   <g id="text_2">
    <g clip-path="url(#p0ab3fb5b07)">
     <!-- N050 -->
     <g style="fill: #ffffff" transform="translate(100.072503 180.014773) scale(0.08 -0.08)">
      <defs>
       <path id="DejaVuSans-35" d="M 691 4666 
L 3169 4666 
L 3169 4134 
L 1269 4134 
L 1269 2991 
Q 1406 3038 1543 3061 
Q 1681 3084 1819 3084 
Q 2600 3084 3056 2656 
Q 3513 2228 3513 1497 
Q 3513 744 3044 326 
Q 2575 -91 1722 -91 
Q 1428 -91 1123 -41 
Q 819 9 494 109 
L 494 744 
Q 775 591 1075 516 
Q 1375 441 1709 441 
Q 2250 441 2565 725 
Q 2881 1009 2881 1497 
Q 2881 1984 2565 2268 
Q 2250 2553 1709 2553 
Q 1456 2553 1204 2497 
Q 953 2441 691 2322 
L 691 4666 
z
" transform="scale(0.015625)"/>
      </defs>
      <use xlink:href="#DejaVuSans-4e"/>
      <use xlink:href="#DejaVuSans-30" x="74.804688"/>
      <use xlink:href="#DejaVuSans-35" x="138.427734"/>
      <use xlink:href="#DejaVuSans-30" x="202.050781"/>
     </g>
    </g>
   </g>
   <g id="text_3">
    <g clip-path="url(#p0ab3fb5b07)">
     <!-- N052 -->
     <g style="fill: #ffffff" transform="translate(169.246054 111.287494) scale(0.08 -0.08)">
      <defs>
       <path id="DejaVuSans-32" d="M 1228 531 
L 3431 531 
L 3431 0 
L 469 0 
L 469 531 
Q 828 903 1448 1529 
Q 2069 2156 2228 2338 
Q 2531 2678 2651 2914 
Q 2772 3150 2772 3378 
Q 2772 3750 2511 3984 
Q 2250 4219 1831 4219 
Q 1534 4219 1204 4116 
Q 875 4013 500 3803 
L 500 4441 
Q 881 4594 1212 4672 
Q 1544 4750 1819 4750 
Q 2544 4750 2975 4387 
Q 3406 4025 3406 3419 
Q 3406 3131 3298 2873 
Q 3191 2616 2906 2266 
Q 2828 2175 2409 1742 
Q 1991 1309 1228 531 
z
" transform="scale(0.015625)"/>
      </defs>
      <use xlink:href="#DejaVuSans-4e"/>
      <use xlink:href="#DejaVuSans-30" x="74.804688"/>
      <use xlink:href="#DejaVuSans-35" x="138.427734"/>
      <use xlink:href="#DejaVuSans-32" x="202.050781"/>
     </g>
    </g>
   </g>
   <g id="text_4">
    <g clip-path="url(#p0ab3fb5b07)">
     <!-- N053 -->
     <g style="fill: #ffffff" transform="translate(100.072499 42.560227) scale(0.08 -0.08)">
      <defs>
       <path id="DejaVuSans-33" d="M 2597 2516 
Q 3050 2419 3304 2112 
Q 3559 1806 3559 1356 
Q 3559 666 3084 287 
Q 2609 -91 1734 -91 
Q 1441 -91 1130 -33 
Q 819 25 488 141 
L 488 750 
Q 750 597 1062 519 
Q 1375 441 1716 441 
Q 2309 441 2620 675 
Q 2931 909 2931 1356 
Q 2931 1769 2642 2001 
Q 2353 2234 1838 2234 
L 1294 2234 
L 1294 2753 
L 1863 2753 
Q 2328 2753 2575 2939 
Q 2822 3125 2822 3475 
Q 2822 3834 2567 4026 
Q 2313 4219 1838 4219 
Q 1578 4219 1281 4162 
Q 984 4106 628 3988 
L 628 4550 
Q 988 4650 1302 4700 
Q 1616 4750 1894 4750 
Q 2613 4750 3031 4423 
Q 3450 4097 3450 3541 
Q 3450 3153 3228 2886 
Q 3006 2619 2597 2516 
z
" transform="scale(0.015625)"/>
      </defs>
      <use xlink:href="#DejaVuSans-4e"/>
      <use xlink:href="#DejaVuSans-30" x="74.804688"/>
      <use xlink:href="#DejaVuSans-35" x="138.427734"/>
      <use xlink:href="#DejaVuSans-33" x="202.050781"/>
     </g>
    </g>
   </g>
   <g id="text_5">
    <g clip-path="url(#p0ab3fb5b07)">
     <!-- N049 -->
     <g style="fill: #ffffff" transform="translate(30.898946 111.2875) scale(0.08 -0.08)">
      <use xlink:href="#DejaVuSans-4e"/>
      <use xlink:href="#DejaVuSans-30" x="74.804688"/>
      <use xlink:href="#DejaVuSans-34" x="138.427734"/>
      <use xlink:href="#DejaVuSans-39" x="202.050781"/>
     </g>
    </g>
   </g>
   <g id="text_6">
    <g clip-path="url(#p0ab3fb5b07)">
     <!-- N050 -->
     <g style="fill: #ffffff" transform="translate(100.072503 180.014773) scale(0.08 -0.08)">
      <use xlink:href="#DejaVuSans-4e"/>
      <use xlink:href="#DejaVuSans-30" x="74.804688"/>
      <use xlink:href="#DejaVuSans-35" x="138.427734"/>
      <use xlink:href="#DejaVuSans-30" x="202.050781"/>
     </g>
    </g>
   </g>
   <g id="text_7">
    <g clip-path="url(#p0ab3fb5b07)">
     <!-- N052 -->
     <g style="fill: #ffffff" transform="translate(169.246054 111.287494) scale(0.08 -0.08)">
      <use xlink:href="#DejaVuSans-4e"/>
      <use xlink:href="#DejaVuSans-30" x="74.804688"/>
      <use xlink:href="#DejaVuSans-35" x="138.427734"/>
      <use xlink:href="#DejaVuSans-32" x="202.050781"/>
     </g>
    </g>
   </g>
   <g id="text_8">
    <g clip-path="url(#p0ab3fb5b07)">
     <!-- N053 -->
     <g style="fill: #ffffff" transform="translate(100.072499 42.560227) scale(0.08 -0.08)">
      <use xlink:href="#DejaVuSans-4e"/>
      <use xlink:href="#DejaVuSans-30" x="74.804688"/>
      <use xlink:href="#DejaVuSans-35" x="138.427734"/>
      <use xlink:href="#DejaVuSans-33" x="202.050781"/>
     </g>
    </g>
   </g>
  </g>
 </g>
 <defs>
  <clipPath id="p0ab3fb5b07">
   <rect x="27" y="25.92" width="167.4" height="166.32"/>
  </clipPath>
 </defs>
</svg>
