<?xml version="1.0" encoding="utf-8" standalone="no"?>
<!DOCTYPE svg PUBLIC "-//W3C//DTD SVG 1.1//EN"
  "http://www.w3.org/Graphics/SVG/1.1/DTD/svg11.dtd">
<svg xmlns:xlink="http://www.w3.org/1999/xlink" width="216pt" height="216pt" viewBox="0 0 216 216" xmlns="http://www.w3.org/2000/svg" version="1.1">
 <metadata>
  <rdf:RDF xmlns:dc="http://purl.org/dc/elements/1.1/" xmlns:cc="http://creativecommons.org/ns#" xmlns:rdf="http://www.w3.org/1999/02/22-rdf-syntax-ns#">
   <cc:Work>
    <dc:type rdf:resource="http://purl.org/dc/dcmitype/StillImage"/>
    <dc:date>2023-08-14T18:43:51.471519</dc:date>
    <dc:format>image/svg+xml</dc:format>
    <dc:creator>
     <cc:Agent>
      <dc:title>Matplotlib v3.7.2, https://matplotlib.org/</dc:title>
     </cc:Agent>
    </dc:creator>
   </cc:Work>
  </rdf:RDF>
 </metadata>
 <defs>
  <style type="text/css">*{stroke-linejoin: round; stroke-linecap: butt}</style>
 </defs>
 <g id="figure_1">
  <g id="patch_1">
   <path d="M 0 216 
L 216 216 
L 216 0 
L 0 0 
z
" style="fill: #ffffff"/>
  </g>
  <g id="axes_1">
   <g id="patch_2">
    <path d="M 48.020746 121.770446 
Q 54.168056 139.178566 63.4687 154.998255 
L 66.572096 153.173719 
Q 66.922577 159.694806 67.796707 166.365316 
Q 61.942707 163.051793 56.227441 159.255505 
L 59.330838 157.430969 
Q 49.7959 141.212764 43.494659 123.368738 
L 48.020746 121.770446 
z
" clip-path="url(#p766f17c9e5)" style="stroke: #000000; stroke-linecap: round"/>
   </g>
   <g id="patch_3">
    <path d="M 90.359658 177.652967 
Q 104.79998 179.375158 119.239127 178.65216 
L 119.059093 175.056665 
Q 124.98292 177.767363 131.318824 180.036761 
Q 125.695054 183.732106 119.659206 187.04165 
L 119.479172 183.446154 
Q 104.634612 184.189452 89.791225 182.419191 
L 90.359658 177.652967 
z
" clip-path="url(#p766f17c9e5)" style="stroke: #000000; stroke-linecap: round"/>
   </g>
   <g id="patch_4">
    <path d="M 69.618925 165.116826 
Q 63.471615 147.708706 54.170972 131.889018 
L 51.067575 133.713553 
Q 50.717094 127.192467 49.842964 120.521957 
Q 55.696965 123.835479 61.412231 127.631768 
L 58.308834 129.456304 
Q 67.843771 145.674509 74.145012 163.518534 
L 69.618925 165.116826 
z
" clip-path="url(#p766f17c9e5)" style="stroke: #000000; stroke-linecap: round"/>
   </g>
   <g id="patch_5">
    <path d="M 82.687992 165.104717 
Q 116.498748 118.59863 135.264758 64.523089 
L 131.863734 63.342821 
Q 136.631332 58.757214 141.293626 53.917411 
Q 142.357911 60.552419 143.200481 67.277049 
L 139.799457 66.096781 
Q 120.799951 120.845156 86.570396 167.927294 
L 82.687992 165.104717 
z
" clip-path="url(#p766f17c9e5)" style="stroke: #000000; stroke-linecap: round"/>
   </g>
   <g id="patch_6">
    <path d="M 151.608931 165.030188 
Q 161.926604 149.72079 169.089719 132.825397 
L 165.775298 131.420187 
Q 170.803564 127.253181 175.639822 122.576598 
Q 176.466782 129.252292 176.823367 136.10422 
L 173.508946 134.69901 
Q 166.165385 152.020018 155.589353 167.712769 
L 151.608931 165.030188 
z
" clip-path="url(#p766f17c9e5)" style="stroke: #000000; stroke-linecap: round"/>
   </g>
   <g id="patch_7">
    <path d="M 145.419192 163.506807 
Q 153.158812 114.977915 147.096812 66.450649 
L 143.524576 66.896891 
Q 145.773017 60.68691 147.789194 54.274966 
Q 151.699771 59.741211 155.432028 65.409419 
L 151.859793 65.85566 
Q 158.006377 115.060033 150.159287 164.262781 
L 145.419192 163.506807 
z
" clip-path="url(#p766f17c9e5)" style="stroke: #000000; stroke-linecap: round"/>
   </g>
   <g id="patch_8">
    <path d="M 131.040349 177.961573 
Q 116.600027 176.239383 102.160879 176.962381 
L 102.340913 180.557876 
Q 96.417086 177.847178 90.081182 175.57778 
Q 95.704953 171.882435 101.7408 168.572891 
L 101.920834 172.168387 
Q 116.765394 171.425089 131.608781 173.19535 
L 131.040349 177.961573 
z
" clip-path="url(#p766f17c9e5)" style="stroke: #000000; stroke-linecap: round"/>
   </g>
   <g id="patch_9">
    <path d="M 173.551404 121.857073 
Q 163.23373 137.166471 156.070616 154.061864 
L 159.385037 155.467074 
Q 154.35677 159.63408 149.520513 164.310663 
Q 148.693553 157.634969 148.336968 150.783041 
L 151.651388 152.188251 
Q 158.99495 134.867243 169.570982 119.174493 
L 173.551404 121.857073 
z
" clip-path="url(#p766f17c9e5)" style="stroke: #000000; stroke-linecap: round"/>
   </g>
   <g id="patch_10">
    <path d="M 138.712004 53.055283 
Q 104.901248 99.56137 86.135238 153.636911 
L 89.536262 154.817179 
Q 84.768663 159.402786 80.10637 164.242589 
Q 79.042084 157.607581 78.199514 150.882951 
L 81.600539 152.063219 
Q 100.600045 97.314844 134.8296 50.232706 
L 138.712004 53.055283 
z
" clip-path="url(#p766f17c9e5)" style="stroke: #000000; stroke-linecap: round"/>
   </g>
   <g id="patch_11">
    <path d="M 131.040341 40.507032 
Q 116.600022 38.784841 102.160878 39.507838 
L 102.340912 43.103333 
Q 96.417086 40.392634 90.081183 38.123236 
Q 95.704953 34.427892 101.740799 31.118348 
L 101.920833 34.713844 
Q 116.765391 33.970547 131.608774 35.740809 
L 131.040341 40.507032 
z
" clip-path="url(#p766f17c9e5)" style="stroke: #000000; stroke-linecap: round"/>
   </g>
   <g id="patch_12">
    <path d="M 145.15436 54.653188 
Q 137.41474 103.182081 143.47674 151.709346 
L 147.048976 151.263104 
Q 144.800535 157.473086 142.784358 163.885029 
Q 138.873781 158.418784 135.141523 152.750577 
L 138.713759 152.304335 
Q 132.567175 103.099962 140.414265 53.897215 
L 145.15436 54.653188 
z
" clip-path="url(#p766f17c9e5)" style="stroke: #000000; stroke-linecap: round"/>
   </g>
   <g id="patch_13">
    <path d="M 90.359659 40.198423 
Q 104.799978 41.920614 119.239122 41.197617 
L 119.059088 37.602121 
Q 124.982914 40.31282 131.318817 42.582219 
Q 125.695047 46.277563 119.659201 49.587106 
L 119.479167 45.991611 
Q 104.634609 46.734908 89.791226 44.964646 
L 90.359659 40.198423 
z
" clip-path="url(#p766f17c9e5)" style="stroke: #000000; stroke-linecap: round"/>
   </g>
   <g id="PathCollection_1">
    <defs>
     <path id="m501635acbe" d="M 0 -14.142136 
L -12.247449 -7.071068 
L -12.247449 7.071068 
L -0 14.142136 
L 12.247449 7.071068 
L 12.247449 -7.071068 
z
" style="stroke: #008000"/>
    </defs>
    <g clip-path="url(#p766f17c9e5)">
     <use xlink:href="#m501635acbe" x="76.113229" y="40.352727" style="fill: #008000; stroke: #008000"/>
     <use xlink:href="#m501635acbe" x="145.286771" y="40.352727" style="fill: #008000; stroke: #008000"/>
     <use xlink:href="#m501635acbe" x="41.526446" y="109.08" style="fill: #008000; stroke: #008000"/>
     <use xlink:href="#m501635acbe" x="76.113225" y="177.807273" style="fill: #008000; stroke: #008000"/>
     <use xlink:href="#m501635acbe" x="179.873554" y="109.079993" style="fill: #008000; stroke: #008000"/>
     <use xlink:href="#m501635acbe" x="145.286781" y="177.807268" style="fill: #008000; stroke: #008000"/>
    </g>
   </g>
   <g id="text_1">
    <g clip-path="url(#p766f17c9e5)">
     <!-- N059 -->
     <g style="fill: #ffffff" transform="translate(30.898946 111.2875) scale(0.08 -0.08)">
      <defs>
       <path id="DejaVuSans-4e" d="M 628 4666 
L 1478 4666 
L 3547 763 
L 3547 4666 
L 4159 4666 
L 4159 0 
L 3309 0 
L 1241 3903 
L 1241 0 
L 628 0 
L 628 4666 
z
" transform="scale(0.015625)"/>
       <path id="DejaVuSans-30" d="M 2034 4250 
Q 1547 4250 1301 3770 
Q 1056 3291 1056 2328 
Q 1056 1369 1301 889 
Q 1547 409 2034 409 
Q 2525 409 2770 889 
Q 3016 1369 3016 2328 
Q 3016 3291 2770 3770 
Q 2525 4250 2034 4250 
z
M 2034 4750 
Q 2819 4750 3233 4129 
Q 3647 3509 3647 2328 
Q 3647 1150 3233 529 
Q 2819 -91 2034 -91 
Q 1250 -91 836 529 
Q 422 1150 422 2328 
Q 422 3509 836 4129 
Q 1250 4750 2034 4750 
z
" transform="scale(0.015625)"/>
       <path id="DejaVuSans-35" d="M 691 4666 
L 3169 4666 
L 3169 4134 
L 1269 4134 
L 1269 2991 
Q 1406 3038 1543 3061 
Q 1681 3084 1819 3084 
Q 2600 3084 3056 2656 
Q 3513 2228 3513 1497 
Q 3513 744 3044 326 
Q 2575 -91 1722 -91 
Q 1428 -91 1123 -41 
Q 819 9 494 109 
L 494 744 
Q 775 591 1075 516 
Q 1375 441 1709 441 
Q 2250 441 2565 725 
Q 2881 1009 2881 1497 
Q 2881 1984 2565 2268 
Q 2250 2553 1709 2553 
Q 1456 2553 1204 2497 
Q 953 2441 691 2322 
L 691 4666 
z
" transform="scale(0.015625)"/>
       <path id="DejaVuSans-39" d="M 703 97 
L 703 672 
Q 941 559 1184 500 
Q 1428 441 1663 441 
Q 2288 441 2617 861 
Q 2947 1281 2994 2138 
Q 2813 1869 2534 1725 
Q 2256 1581 1919 1581 
Q 1219 1581 811 2004 
Q 403 2428 403 3163 
Q 403 3881 828 4315 
Q 1253 4750 1959 4750 
Q 2769 4750 3195 4129 
Q 3622 3509 3622 2328 
Q 3622 1225 3098 567 
Q 2575 -91 1691 -91 
Q 1453 -91 1209 -44 
Q 966 3 703 97 
z
M 1959 2075 
Q 2384 2075 2632 2365 
Q 2881 2656 2881 3163 
Q 2881 3666 2632 3958 
Q 2384 4250 1959 4250 
Q 1534 4250 1286 3958 
Q 1038 3666 1038 3163 
Q 1038 2656 1286 2365 
Q 1534 2075 1959 2075 
z
" transform="scale(0.015625)"/>
      </defs>
      <use xlink:href="#DejaVuSans-4e"/>
      <use xlink:href="#DejaVuSans-30" x="74.804688"/>
      <use xlink:href="#DejaVuSans-35" x="138.427734"/>
      <use xlink:href="#DejaVuSans-39" x="202.050781"/>
     </g>
    </g>
   </g>
   <g id="text_2">
    <g clip-path="url(#p766f17c9e5)">
     <!-- N060 -->
     <g style="fill: #ffffff" transform="translate(65.485725 180.014773) scale(0.08 -0.08)">
      <defs>
       <path id="DejaVuSans-36" d="M 2113 2584 
Q 1688 2584 1439 2293 
Q 1191 2003 1191 1497 
Q 1191 994 1439 701 
Q 1688 409 2113 409 
Q 2538 409 2786 701 
Q 3034 994 3034 1497 
Q 3034 2003 2786 2293 
Q 2538 2584 2113 2584 
z
M 3366 4563 
L 3366 3988 
Q 3128 4100 2886 4159 
Q 2644 4219 2406 4219 
Q 1781 4219 1451 3797 
Q 1122 3375 1075 2522 
Q 1259 2794 1537 2939 
Q 1816 3084 2150 3084 
Q 2853 3084 3261 2657 
Q 3669 2231 3669 1497 
Q 3669 778 3244 343 
Q 2819 -91 2113 -91 
Q 1303 -91 875 529 
Q 447 1150 447 2328 
Q 447 3434 972 4092 
Q 1497 4750 2381 4750 
Q 2619 4750 2861 4703 
Q 3103 4656 3366 4563 
z
" transform="scale(0.015625)"/>
      </defs>
      <use xlink:href="#DejaVuSans-4e"/>
      <use xlink:href="#DejaVuSans-30" x="74.804688"/>
      <use xlink:href="#DejaVuSans-36" x="138.427734"/>
      <use xlink:href="#DejaVuSans-30" x="202.050781"/>
     </g>
    </g>
   </g>
   <g id="text_3">
    <g clip-path="url(#p766f17c9e5)">
     <!-- N061 -->
     <g style="fill: #ffffff" transform="translate(134.659281 180.014768) scale(0.08 -0.08)">
      <defs>
       <path id="DejaVuSans-31" d="M 794 531 
L 1825 531 
L 1825 4091 
L 703 3866 
L 703 4441 
L 1819 4666 
L 2450 4666 
L 2450 531 
L 3481 531 
L 3481 0 
L 794 0 
L 794 531 
z
" transform="scale(0.015625)"/>
      </defs>
      <use xlink:href="#DejaVuSans-4e"/>
      <use xlink:href="#DejaVuSans-30" x="74.804688"/>
      <use xlink:href="#DejaVuSans-36" x="138.427734"/>
      <use xlink:href="#DejaVuSans-31" x="202.050781"/>
     </g>
    </g>
   </g>
   <g id="text_4">
    <g clip-path="url(#p766f17c9e5)">
     <!-- N062 -->
     <g style="fill: #ffffff" transform="translate(169.246054 111.287493) scale(0.08 -0.08)">
      <defs>
       <path id="DejaVuSans-32" d="M 1228 531 
L 3431 531 
L 3431 0 
L 469 0 
L 469 531 
Q 828 903 1448 1529 
Q 2069 2156 2228 2338 
Q 2531 2678 2651 2914 
Q 2772 3150 2772 3378 
Q 2772 3750 2511 3984 
Q 2250 4219 1831 4219 
Q 1534 4219 1204 4116 
Q 875 4013 500 3803 
L 500 4441 
Q 881 4594 1212 4672 
Q 1544 4750 1819 4750 
Q 2544 4750 2975 4387 
Q 3406 4025 3406 3419 
Q 3406 3131 3298 2873 
Q 3191 2616 2906 2266 
Q 2828 2175 2409 1742 
Q 1991 1309 1228 531 
z
" transform="scale(0.015625)"/>
      </defs>
      <use xlink:href="#DejaVuSans-4e"/>
      <use xlink:href="#DejaVuSans-30" x="74.804688"/>
      <use xlink:href="#DejaVuSans-36" x="138.427734"/>
      <use xlink:href="#DejaVuSans-32" x="202.050781"/>
     </g>
    </g>
   </g>
   <g id="text_5">
    <g clip-path="url(#p766f17c9e5)">
     <!-- N063 -->
     <g style="fill: #ffffff" transform="translate(134.659271 42.560227) scale(0.08 -0.08)">
      <defs>
       <path id="DejaVuSans-33" d="M 2597 2516 
Q 3050 2419 3304 2112 
Q 3559 1806 3559 1356 
Q 3559 666 3084 287 
Q 2609 -91 1734 -91 
Q 1441 -91 1130 -33 
Q 819 25 488 141 
L 488 750 
Q 750 597 1062 519 
Q 1375 441 1716 441 
Q 2309 441 2620 675 
Q 2931 909 2931 1356 
Q 2931 1769 2642 2001 
Q 2353 2234 1838 2234 
L 1294 2234 
L 1294 2753 
L 1863 2753 
Q 2328 2753 2575 2939 
Q 2822 3125 2822 3475 
Q 2822 3834 2567 4026 
Q 2313 4219 1838 4219 
Q 1578 4219 1281 4162 
Q 984 4106 628 3988 
L 628 4550 
Q 988 4650 1302 4700 
Q 1616 4750 1894 4750 
Q 2613 4750 3031 4423 
Q 3450 4097 3450 3541 
Q 3450 3153 3228 2886 
Q 3006 2619 2597 2516 
z
" transform="scale(0.015625)"/>
      </defs>
      <use xlink:href="#DejaVuSans-4e"/>
      <use xlink:href="#DejaVuSans-30" x="74.804688"/>
      <use xlink:href="#DejaVuSans-36" x="138.427734"/>
      <use xlink:href="#DejaVuSans-33" x="202.050781"/>
     </g>
    </g>
   </g>
   <g id="text_6">
    <g clip-path="url(#p766f17c9e5)">
     <!-- N064 -->
     <g style="fill: #ffffff" transform="translate(65.485729 42.560227) scale(0.08 -0.08)">
      <defs>
       <path id="DejaVuSans-34" d="M 2419 4116 
L 825 1625 
L 2419 1625 
L 2419 4116 
z
M 2253 4666 
L 3047 4666 
L 3047 1625 
L 3713 1625 
L 3713 1100 
L 3047 1100 
L 3047 0 
L 2419 0 
L 2419 1100 
L 313 1100 
L 313 1709 
L 2253 4666 
z
" transform="scale(0.015625)"/>
      </defs>
      <use xlink:href="#DejaVuSans-4e"/>
      <use xlink:href="#DejaVuSans-30" x="74.804688"/>
      <use xlink:href="#DejaVuSans-36" x="138.427734"/>
      <use xlink:href="#DejaVuSans-34" x="202.050781"/>
     </g>
    </g>
   </g>
   <g id="text_7">
    <g clip-path="url(#p766f17c9e5)">
     <!-- N059 -->
     <g style="fill: #ffffff" transform="translate(30.898946 111.2875) scale(0.08 -0.08)">
      <use xlink:href="#DejaVuSans-4e"/>
      <use xlink:href="#DejaVuSans-30" x="74.804688"/>
      <use xlink:href="#DejaVuSans-35" x="138.427734"/>
      <use xlink:href="#DejaVuSans-39" x="202.050781"/>
     </g>
    </g>
   </g>
   <g id="text_8">
    <g clip-path="url(#p766f17c9e5)">
     <!-- N060 -->
     <g style="fill: #ffffff" transform="translate(65.485725 180.014773) scale(0.08 -0.08)">
      <use xlink:href="#DejaVuSans-4e"/>
      <use xlink:href="#DejaVuSans-30" x="74.804688"/>
      <use xlink:href="#DejaVuSans-36" x="138.427734"/>
      <use xlink:href="#DejaVuSans-30" x="202.050781"/>
     </g>
    </g>
   </g>
   <g id="text_9">
    <g clip-path="url(#p766f17c9e5)">
     <!-- N061 -->
     <g style="fill: #ffffff" transform="translate(134.659281 180.014768) scale(0.08 -0.08)">
      <use xlink:href="#DejaVuSans-4e"/>
      <use xlink:href="#DejaVuSans-30" x="74.804688"/>
      <use xlink:href="#DejaVuSans-36" x="138.427734"/>
      <use xlink:href="#DejaVuSans-31" x="202.050781"/>
     </g>
    </g>
   </g>
   <g id="text_10">
    <g clip-path="url(#p766f17c9e5)">
     <!-- N062 -->
     <g style="fill: #ffffff" transform="translate(169.246054 111.287493) scale(0.08 -0.08)">
      <use xlink:href="#DejaVuSans-4e"/>
      <use xlink:href="#DejaVuSans-30" x="74.804688"/>
      <use xlink:href="#DejaVuSans-36" x="138.427734"/>
      <use xlink:href="#DejaVuSans-32" x="202.050781"/>
     </g>
    </g>
   </g>
   <g id="text_11">
    <g clip-path="url(#p766f17c9e5)">
     <!-- N063 -->
     <g style="fill: #ffffff" transform="translate(134.659271 42.560227) scale(0.08 -0.08)">
      <use xlink:href="#DejaVuSans-4e"/>
      <use xlink:href="#DejaVuSans-30" x="74.804688"/>
      <use xlink:href="#DejaVuSans-36" x="138.427734"/>
      <use xlink:href="#DejaVuSans-33" x="202.050781"/>
     </g>
    </g>
   </g>
   <g id="text_12">
    <g clip-path="url(#p766f17c9e5)">
     <!-- N064 -->
     <g style="fill: #ffffff" transform="translate(65.485729 42.560227) scale(0.08 -0.08)">
      <use xlink:href="#DejaVuSans-4e"/>
      <use xlink:href="#DejaVuSans-30" x="74.804688"/>
      <use xlink:href="#DejaVuSans-36" x="138.427734"/>
      <use xlink:href="#DejaVuSans-34" x="202.050781"/>
     </g>
    </g>
   </g>
  </g>
 </g>
 <defs>
  <clipPath id="p766f17c9e5">
   <rect x="27" y="25.92" width="167.4" height="166.32"/>
  </clipPath>
 </defs>
</svg>
