<?xml version="1.0" encoding="utf-8" standalone="no"?>
<!DOCTYPE svg PUBLIC "-//W3C//DTD SVG 1.1//EN"
  "http://www.w3.org/Graphics/SVG/1.1/DTD/svg11.dtd">
<svg xmlns:xlink="http://www.w3.org/1999/xlink" width="216pt" height="216pt" viewBox="0 0 216 216" xmlns="http://www.w3.org/2000/svg" version="1.1">
 <metadata>
  <rdf:RDF xmlns:dc="http://purl.org/dc/elements/1.1/" xmlns:cc="http://creativecommons.org/ns#" xmlns:rdf="http://www.w3.org/1999/02/22-rdf-syntax-ns#">
   <cc:Work>
    <dc:type rdf:resource="http://purl.org/dc/dcmitype/StillImage"/>
    <dc:date>2023-08-14T19:09:20.922753</dc:date>
    <dc:format>image/svg+xml</dc:format>
    <dc:creator>
     <cc:Agent>
      <dc:title>Matplotlib v3.7.2, https://matplotlib.org/</dc:title>
     </cc:Agent>
    </dc:creator>
   </cc:Work>
  </rdf:RDF>
 </metadata>
 <defs>
  <style type="text/css">*{stroke-linejoin: round; stroke-linecap: butt}</style>
 </defs>
 <g id="figure_1">
  <g id="patch_1">
   <path d="M 0 216 
L 216 216 
L 216 0 
L 0 0 
z
" style="fill: #ffffff"/>
  </g>
  <g id="axes_1">
   <g id="patch_2">
    <path d="M 50.02653 120.631605 
Q 58.266062 137.004353 66.505595 153.3771 
L 69.721346 151.758784 
Q 69.739111 158.467689 69.756876 165.176593 
Q 64.379526 161.164882 59.002177 157.153172 
L 62.217927 155.534855 
Q 53.978395 139.162107 45.738862 122.78936 
L 50.02653 120.631605 
z
" clip-path="url(#pfbb4a30224)" style="stroke: #000000; stroke-linecap: round"/>
   </g>
   <g id="patch_3">
    <path d="M 90.252766 175.407272 
Q 104.695267 175.407271 119.137769 175.40727 
L 119.137769 171.80727 
Q 125.13988 174.807269 131.141991 177.807269 
Q 125.13988 180.807269 119.13777 183.80727 
L 119.137769 180.20727 
Q 104.695268 180.207271 90.252766 180.207272 
L 90.252766 175.407272 
z
" clip-path="url(#pfbb4a30224)" style="stroke: #000000; stroke-linecap: round"/>
   </g>
   <g id="patch_4">
    <path d="M 80.32564 164.097913 
Q 105.857571 113.363489 131.389502 62.629065 
L 128.173751 61.010749 
Q 133.550864 56.999509 138.927976 52.988269 
Q 138.910449 59.696702 138.892921 66.405135 
L 135.67717 64.786819 
Q 110.145239 115.521244 84.613307 166.255668 
L 80.32564 164.097913 
z
" clip-path="url(#pfbb4a30224)" style="stroke: #000000; stroke-linecap: round"/>
   </g>
   <g id="patch_5">
    <path d="M 149.499195 164.097908 
Q 157.738727 147.72516 165.978258 131.352411 
L 162.762507 129.734095 
Q 168.139856 125.722384 173.517206 121.710673 
Q 173.499441 128.419578 173.481677 135.128482 
L 170.265926 133.510166 
Q 162.026394 149.882914 153.786863 166.255663 
L 149.499195 164.097908 
z
" clip-path="url(#pfbb4a30224)" style="stroke: #000000; stroke-linecap: round"/>
   </g>
   <g id="patch_6">
    <path d="M 142.88678 163.666666 
Q 142.886776 115.0778 142.886773 66.488934 
L 139.286773 66.488934 
Q 142.286772 60.490082 145.286772 54.49123 
Q 148.286772 60.490082 151.286773 66.488933 
L 147.686773 66.488933 
Q 147.686776 115.077799 147.68678 163.666665 
L 142.88678 163.666666 
z
" clip-path="url(#pfbb4a30224)" style="stroke: #000000; stroke-linecap: round"/>
   </g>
   <g id="patch_7">
    <path d="M 131.147233 42.752727 
Q 116.704734 42.752727 102.262236 42.752727 
L 102.262236 46.352727 
Q 96.260126 43.352727 90.258016 40.352727 
Q 96.260126 37.352727 102.262236 34.352727 
L 102.262236 37.952727 
Q 116.704734 37.952727 131.147233 37.952727 
L 131.147233 42.752727 
z
" clip-path="url(#pfbb4a30224)" style="stroke: #000000; stroke-linecap: round"/>
   </g>
   <g id="PathCollection_1">
    <defs>
     <path id="ma98503165d" d="M 0 -14.142136 
L -12.247449 -7.071068 
L -12.247449 7.071068 
L -0 14.142136 
L 12.247449 7.071068 
L 12.247449 -7.071068 
z
" style="stroke: #0000ff"/>
    </defs>
    <g clip-path="url(#pfbb4a30224)">
     <use xlink:href="#ma98503165d" x="41.526446" y="109.08" style="fill: #0000ff; stroke: #0000ff"/>
     <use xlink:href="#ma98503165d" x="76.113225" y="177.807273" style="fill: #0000ff; stroke: #0000ff"/>
     <use xlink:href="#ma98503165d" x="145.286781" y="177.807268" style="fill: #0000ff; stroke: #0000ff"/>
     <use xlink:href="#ma98503165d" x="179.873554" y="109.079993" style="fill: #0000ff; stroke: #0000ff"/>
     <use xlink:href="#ma98503165d" x="145.286771" y="40.352727" style="fill: #0000ff; stroke: #0000ff"/>
     <use xlink:href="#ma98503165d" x="76.113229" y="40.352727" style="fill: #0000ff; stroke: #0000ff"/>
    </g>
   </g>
   <g id="text_1">
    <g clip-path="url(#pfbb4a30224)">
     <!-- N065 -->
     <g style="fill: #ffffff" transform="translate(30.898946 111.2875) scale(0.08 -0.08)">
      <defs>
       <path id="DejaVuSans-4e" d="M 628 4666 
L 1478 4666 
L 3547 763 
L 3547 4666 
L 4159 4666 
L 4159 0 
L 3309 0 
L 1241 3903 
L 1241 0 
L 628 0 
L 628 4666 
z
" transform="scale(0.015625)"/>
       <path id="DejaVuSans-30" d="M 2034 4250 
Q 1547 4250 1301 3770 
Q 1056 3291 1056 2328 
Q 1056 1369 1301 889 
Q 1547 409 2034 409 
Q 2525 409 2770 889 
Q 3016 1369 3016 2328 
Q 3016 3291 2770 3770 
Q 2525 4250 2034 4250 
z
M 2034 4750 
Q 2819 4750 3233 4129 
Q 3647 3509 3647 2328 
Q 3647 1150 3233 529 
Q 2819 -91 2034 -91 
Q 1250 -91 836 529 
Q 422 1150 422 2328 
Q 422 3509 836 4129 
Q 1250 4750 2034 4750 
z
" transform="scale(0.015625)"/>
       <path id="DejaVuSans-36" d="M 2113 2584 
Q 1688 2584 1439 2293 
Q 1191 2003 1191 1497 
Q 1191 994 1439 701 
Q 1688 409 2113 409 
Q 2538 409 2786 701 
Q 3034 994 3034 1497 
Q 3034 2003 2786 2293 
Q 2538 2584 2113 2584 
z
M 3366 4563 
L 3366 3988 
Q 3128 4100 2886 4159 
Q 2644 4219 2406 4219 
Q 1781 4219 1451 3797 
Q 1122 3375 1075 2522 
Q 1259 2794 1537 2939 
Q 1816 3084 2150 3084 
Q 2853 3084 3261 2657 
Q 3669 2231 3669 1497 
Q 3669 778 3244 343 
Q 2819 -91 2113 -91 
Q 1303 -91 875 529 
Q 447 1150 447 2328 
Q 447 3434 972 4092 
Q 1497 4750 2381 4750 
Q 2619 4750 2861 4703 
Q 3103 4656 3366 4563 
z
" transform="scale(0.015625)"/>
       <path id="DejaVuSans-35" d="M 691 4666 
L 3169 4666 
L 3169 4134 
L 1269 4134 
L 1269 2991 
Q 1406 3038 1543 3061 
Q 1681 3084 1819 3084 
Q 2600 3084 3056 2656 
Q 3513 2228 3513 1497 
Q 3513 744 3044 326 
Q 2575 -91 1722 -91 
Q 1428 -91 1123 -41 
Q 819 9 494 109 
L 494 744 
Q 775 591 1075 516 
Q 1375 441 1709 441 
Q 2250 441 2565 725 
Q 2881 1009 2881 1497 
Q 2881 1984 2565 2268 
Q 2250 2553 1709 2553 
Q 1456 2553 1204 2497 
Q 953 2441 691 2322 
L 691 4666 
z
" transform="scale(0.015625)"/>
      </defs>
      <use xlink:href="#DejaVuSans-4e"/>
      <use xlink:href="#DejaVuSans-30" x="74.804688"/>
      <use xlink:href="#DejaVuSans-36" x="138.427734"/>
      <use xlink:href="#DejaVuSans-35" x="202.050781"/>
     </g>
    </g>
   </g>
   <g id="text_2">
    <g clip-path="url(#pfbb4a30224)">
     <!-- N066 -->
     <g style="fill: #ffffff" transform="translate(65.485725 180.014773) scale(0.08 -0.08)">
      <use xlink:href="#DejaVuSans-4e"/>
      <use xlink:href="#DejaVuSans-30" x="74.804688"/>
      <use xlink:href="#DejaVuSans-36" x="138.427734"/>
      <use xlink:href="#DejaVuSans-36" x="202.050781"/>
     </g>
    </g>
   </g>
   <g id="text_3">
    <g clip-path="url(#pfbb4a30224)">
     <!-- N067 -->
     <g style="fill: #ffffff" transform="translate(134.659281 180.014768) scale(0.08 -0.08)">
      <defs>
       <path id="DejaVuSans-37" d="M 525 4666 
L 3525 4666 
L 3525 4397 
L 1831 0 
L 1172 0 
L 2766 4134 
L 525 4134 
L 525 4666 
z
" transform="scale(0.015625)"/>
      </defs>
      <use xlink:href="#DejaVuSans-4e"/>
      <use xlink:href="#DejaVuSans-30" x="74.804688"/>
      <use xlink:href="#DejaVuSans-36" x="138.427734"/>
      <use xlink:href="#DejaVuSans-37" x="202.050781"/>
     </g>
    </g>
   </g>
   <g id="text_4">
    <g clip-path="url(#pfbb4a30224)">
     <!-- N068 -->
     <g style="fill: #ffffff" transform="translate(169.246054 111.287493) scale(0.08 -0.08)">
      <defs>
       <path id="DejaVuSans-38" d="M 2034 2216 
Q 1584 2216 1326 1975 
Q 1069 1734 1069 1313 
Q 1069 891 1326 650 
Q 1584 409 2034 409 
Q 2484 409 2743 651 
Q 3003 894 3003 1313 
Q 3003 1734 2745 1975 
Q 2488 2216 2034 2216 
z
M 1403 2484 
Q 997 2584 770 2862 
Q 544 3141 544 3541 
Q 544 4100 942 4425 
Q 1341 4750 2034 4750 
Q 2731 4750 3128 4425 
Q 3525 4100 3525 3541 
Q 3525 3141 3298 2862 
Q 3072 2584 2669 2484 
Q 3125 2378 3379 2068 
Q 3634 1759 3634 1313 
Q 3634 634 3220 271 
Q 2806 -91 2034 -91 
Q 1263 -91 848 271 
Q 434 634 434 1313 
Q 434 1759 690 2068 
Q 947 2378 1403 2484 
z
M 1172 3481 
Q 1172 3119 1398 2916 
Q 1625 2713 2034 2713 
Q 2441 2713 2670 2916 
Q 2900 3119 2900 3481 
Q 2900 3844 2670 4047 
Q 2441 4250 2034 4250 
Q 1625 4250 1398 4047 
Q 1172 3844 1172 3481 
z
" transform="scale(0.015625)"/>
      </defs>
      <use xlink:href="#DejaVuSans-4e"/>
      <use xlink:href="#DejaVuSans-30" x="74.804688"/>
      <use xlink:href="#DejaVuSans-36" x="138.427734"/>
      <use xlink:href="#DejaVuSans-38" x="202.050781"/>
     </g>
    </g>
   </g>
   <g id="text_5">
    <g clip-path="url(#pfbb4a30224)">
     <!-- N069 -->
     <g style="fill: #ffffff" transform="translate(134.659271 42.560227) scale(0.08 -0.08)">
      <defs>
       <path id="DejaVuSans-39" d="M 703 97 
L 703 672 
Q 941 559 1184 500 
Q 1428 441 1663 441 
Q 2288 441 2617 861 
Q 2947 1281 2994 2138 
Q 2813 1869 2534 1725 
Q 2256 1581 1919 1581 
Q 1219 1581 811 2004 
Q 403 2428 403 3163 
Q 403 3881 828 4315 
Q 1253 4750 1959 4750 
Q 2769 4750 3195 4129 
Q 3622 3509 3622 2328 
Q 3622 1225 3098 567 
Q 2575 -91 1691 -91 
Q 1453 -91 1209 -44 
Q 966 3 703 97 
z
M 1959 2075 
Q 2384 2075 2632 2365 
Q 2881 2656 2881 3163 
Q 2881 3666 2632 3958 
Q 2384 4250 1959 4250 
Q 1534 4250 1286 3958 
Q 1038 3666 1038 3163 
Q 1038 2656 1286 2365 
Q 1534 2075 1959 2075 
z
" transform="scale(0.015625)"/>
      </defs>
      <use xlink:href="#DejaVuSans-4e"/>
      <use xlink:href="#DejaVuSans-30" x="74.804688"/>
      <use xlink:href="#DejaVuSans-36" x="138.427734"/>
      <use xlink:href="#DejaVuSans-39" x="202.050781"/>
     </g>
    </g>
   </g>
   <g id="text_6">
    <g clip-path="url(#pfbb4a30224)">
     <!-- N070 -->
     <g style="fill: #ffffff" transform="translate(65.485729 42.560227) scale(0.08 -0.08)">
      <use xlink:href="#DejaVuSans-4e"/>
      <use xlink:href="#DejaVuSans-30" x="74.804688"/>
      <use xlink:href="#DejaVuSans-37" x="138.427734"/>
      <use xlink:href="#DejaVuSans-30" x="202.050781"/>
     </g>
    </g>
   </g>
  </g>
 </g>
 <defs>
  <clipPath id="pfbb4a30224">
   <rect x="27" y="25.92" width="167.4" height="166.32"/>
  </clipPath>
 </defs>
</svg>
