<?xml version="1.0" encoding="utf-8" standalone="no"?>
<!DOCTYPE svg PUBLIC "-//W3C//DTD SVG 1.1//EN"
  "http://www.w3.org/Graphics/SVG/1.1/DTD/svg11.dtd">
<!-- Created with matplotlib (https://matplotlib.org/) -->
<svg height="216pt" version="1.1" viewBox="0 0 216 216" width="216pt" xmlns="http://www.w3.org/2000/svg" xmlns:xlink="http://www.w3.org/1999/xlink">
 <defs>
  <style type="text/css">
*{stroke-linecap:butt;stroke-linejoin:round;}
  </style>
 </defs>
 <g id="figure_1">
  <g id="patch_1">
   <path d="M 0 216 
L 216 216 
L 216 0 
L 0 0 
z
" style="fill:#ffffff;"/>
  </g>
  <g id="axes_1">
   <g id="PathCollection_1">
    <defs>
     <path d="M 0 -14.142136 
L -12.247449 -7.071068 
L -12.247449 7.071068 
L -0 14.142136 
L 12.247449 7.071068 
L 12.247449 -7.071068 
z
" id="m6684602129" style="stroke:#008000;"/>
    </defs>
    <g clip-path="url(#p9f39814526)">
     <use style="fill:#008000;stroke:#008000;" x="179.873554" xlink:href="#m6684602129" y="109.079994"/>
     <use style="fill:#008000;stroke:#008000;" x="110.700003" xlink:href="#m6684602129" y="177.807273"/>
     <use style="fill:#008000;stroke:#008000;" x="110.699999" xlink:href="#m6684602129" y="40.352727"/>
     <use style="fill:#008000;stroke:#008000;" x="41.526446" xlink:href="#m6684602129" y="109.08"/>
    </g>
   </g>
   <g id="patch_2">
    <path clip-path="url(#p9f39814526)" d="M 51.647516 119.155187 
Q 69.044285 142.192949 91.208944 160.429581 
L 93.496248 157.64961 
Q 96.096969 163.676629 99.128924 169.678648 
Q 92.51088 168.491397 85.871902 166.916181 
L 88.159206 164.13621 
Q 65.555996 145.538748 47.81699 122.047775 
L 51.647516 119.155187 
z
" style="stroke:#000000;stroke-linecap:round;"/>
   </g>
   <g id="patch_3">
    <path clip-path="url(#p9f39814526)" d="M 120.840486 167.751625 
Q 143.990365 150.50433 162.370073 128.458169 
L 159.604964 126.15292 
Q 165.64869 123.591264 171.670207 120.598219 
Q 170.440147 127.20844 168.821993 133.837084 
L 166.056884 131.531835 
Q 147.313515 154.014201 123.708222 171.600793 
L 120.840486 167.751625 
z
" style="stroke:#000000;stroke-linecap:round;"/>
   </g>
   <g id="patch_4">
    <path clip-path="url(#p9f39814526)" d="M 120.840486 167.751625 
Q 143.990365 150.50433 162.370073 128.458169 
L 159.604964 126.15292 
Q 165.64869 123.591264 171.670207 120.598219 
Q 170.440147 127.20844 168.821993 133.837084 
L 166.056884 131.531835 
Q 147.313515 154.014201 123.708222 171.600793 
L 120.840486 167.751625 
z
" style="stroke:#000000;stroke-linecap:round;"/>
   </g>
   <g id="patch_5">
    <path clip-path="url(#p9f39814526)" d="M 100.578933 167.732086 
Q 83.182164 144.694323 61.017505 126.457691 
L 58.730201 129.237663 
Q 56.129481 123.210643 53.097525 117.208624 
Q 59.71557 118.395875 66.354547 119.971092 
L 64.067243 122.751063 
Q 86.670453 141.348525 104.409459 164.839497 
L 100.578933 167.732086 
z
" style="stroke:#000000;stroke-linecap:round;"/>
   </g>
   <g id="patch_6">
    <path clip-path="url(#p9f39814526)" d="M 169.752484 99.004808 
Q 152.355716 75.967047 130.191057 57.730417 
L 127.903753 60.510389 
Q 125.303033 54.483369 122.271078 48.481351 
Q 128.889122 49.668601 135.528099 51.243817 
L 133.240795 54.023789 
Q 155.844004 72.621249 173.58301 96.112219 
L 169.752484 99.004808 
z
" style="stroke:#000000;stroke-linecap:round;"/>
   </g>
   <g id="patch_7">
    <path clip-path="url(#p9f39814526)" d="M 169.733071 119.135641 
Q 146.583192 136.382937 128.203484 158.429097 
L 130.968593 160.734347 
Q 124.924867 163.296003 118.90335 166.289048 
Q 120.13341 159.678826 121.751564 153.050183 
L 124.516672 155.355432 
Q 143.260042 132.873066 166.865335 115.286474 
L 169.733071 119.135641 
z
" style="stroke:#000000;stroke-linecap:round;"/>
   </g>
   <g id="patch_8">
    <path clip-path="url(#p9f39814526)" d="M 169.733071 119.135641 
Q 146.583192 136.382937 128.203484 158.429097 
L 130.968593 160.734347 
Q 124.924867 163.296003 118.90335 166.289048 
Q 120.13341 159.678826 121.751564 153.050183 
L 124.516672 155.355432 
Q 143.260042 132.873066 166.865335 115.286474 
L 169.733071 119.135641 
z
" style="stroke:#000000;stroke-linecap:round;"/>
   </g>
   <g id="patch_9">
    <path clip-path="url(#p9f39814526)" d="M 120.821069 50.427913 
Q 138.217837 73.465674 160.382496 91.702304 
L 162.6698 88.922333 
Q 165.27052 94.949352 168.302475 100.95137 
Q 161.684431 99.76412 155.045454 98.188904 
L 157.332757 95.408933 
Q 134.729548 76.811472 116.990543 53.320502 
L 120.821069 50.427913 
z
" style="stroke:#000000;stroke-linecap:round;"/>
   </g>
   <g id="text_1">
    <g clip-path="url(#p9f39814526)">
     <!-- N071 -->
     <defs>
      <path d="M 9.8125 72.90625 
L 23.09375 72.90625 
L 55.421875 11.921875 
L 55.421875 72.90625 
L 64.984375 72.90625 
L 64.984375 0 
L 51.703125 0 
L 19.390625 60.984375 
L 19.390625 0 
L 9.8125 0 
z
" id="DejaVuSans-78"/>
      <path d="M 31.78125 66.40625 
Q 24.171875 66.40625 20.328125 58.90625 
Q 16.5 51.421875 16.5 36.375 
Q 16.5 21.390625 20.328125 13.890625 
Q 24.171875 6.390625 31.78125 6.390625 
Q 39.453125 6.390625 43.28125 13.890625 
Q 47.125 21.390625 47.125 36.375 
Q 47.125 51.421875 43.28125 58.90625 
Q 39.453125 66.40625 31.78125 66.40625 
z
M 31.78125 74.21875 
Q 44.046875 74.21875 50.515625 64.515625 
Q 56.984375 54.828125 56.984375 36.375 
Q 56.984375 17.96875 50.515625 8.265625 
Q 44.046875 -1.421875 31.78125 -1.421875 
Q 19.53125 -1.421875 13.0625 8.265625 
Q 6.59375 17.96875 6.59375 36.375 
Q 6.59375 54.828125 13.0625 64.515625 
Q 19.53125 74.21875 31.78125 74.21875 
z
" id="DejaVuSans-48"/>
      <path d="M 8.203125 72.90625 
L 55.078125 72.90625 
L 55.078125 68.703125 
L 28.609375 0 
L 18.3125 0 
L 43.21875 64.59375 
L 8.203125 64.59375 
z
" id="DejaVuSans-55"/>
      <path d="M 12.40625 8.296875 
L 28.515625 8.296875 
L 28.515625 63.921875 
L 10.984375 60.40625 
L 10.984375 69.390625 
L 28.421875 72.90625 
L 38.28125 72.90625 
L 38.28125 8.296875 
L 54.390625 8.296875 
L 54.390625 0 
L 12.40625 0 
z
" id="DejaVuSans-49"/>
     </defs>
     <g style="fill:#ffffff;" transform="translate(30.898946 111.2875)scale(0.08 -0.08)">
      <use xlink:href="#DejaVuSans-78"/>
      <use x="74.804688" xlink:href="#DejaVuSans-48"/>
      <use x="138.427734" xlink:href="#DejaVuSans-55"/>
      <use x="202.050781" xlink:href="#DejaVuSans-49"/>
     </g>
    </g>
   </g>
   <g id="text_2">
    <g clip-path="url(#p9f39814526)">
     <!-- N072 -->
     <defs>
      <path d="M 19.1875 8.296875 
L 53.609375 8.296875 
L 53.609375 0 
L 7.328125 0 
L 7.328125 8.296875 
Q 12.9375 14.109375 22.625 23.890625 
Q 32.328125 33.6875 34.8125 36.53125 
Q 39.546875 41.84375 41.421875 45.53125 
Q 43.3125 49.21875 43.3125 52.78125 
Q 43.3125 58.59375 39.234375 62.25 
Q 35.15625 65.921875 28.609375 65.921875 
Q 23.96875 65.921875 18.8125 64.3125 
Q 13.671875 62.703125 7.8125 59.421875 
L 7.8125 69.390625 
Q 13.765625 71.78125 18.9375 73 
Q 24.125 74.21875 28.421875 74.21875 
Q 39.75 74.21875 46.484375 68.546875 
Q 53.21875 62.890625 53.21875 53.421875 
Q 53.21875 48.921875 51.53125 44.890625 
Q 49.859375 40.875 45.40625 35.40625 
Q 44.1875 33.984375 37.640625 27.21875 
Q 31.109375 20.453125 19.1875 8.296875 
z
" id="DejaVuSans-50"/>
     </defs>
     <g style="fill:#ffffff;" transform="translate(100.072503 180.014773)scale(0.08 -0.08)">
      <use xlink:href="#DejaVuSans-78"/>
      <use x="74.804688" xlink:href="#DejaVuSans-48"/>
      <use x="138.427734" xlink:href="#DejaVuSans-55"/>
      <use x="202.050781" xlink:href="#DejaVuSans-50"/>
     </g>
    </g>
   </g>
   <g id="text_3">
    <g clip-path="url(#p9f39814526)">
     <!-- N075 -->
     <defs>
      <path d="M 10.796875 72.90625 
L 49.515625 72.90625 
L 49.515625 64.59375 
L 19.828125 64.59375 
L 19.828125 46.734375 
Q 21.96875 47.46875 24.109375 47.828125 
Q 26.265625 48.1875 28.421875 48.1875 
Q 40.625 48.1875 47.75 41.5 
Q 54.890625 34.8125 54.890625 23.390625 
Q 54.890625 11.625 47.5625 5.09375 
Q 40.234375 -1.421875 26.90625 -1.421875 
Q 22.3125 -1.421875 17.546875 -0.640625 
Q 12.796875 0.140625 7.71875 1.703125 
L 7.71875 11.625 
Q 12.109375 9.234375 16.796875 8.0625 
Q 21.484375 6.890625 26.703125 6.890625 
Q 35.15625 6.890625 40.078125 11.328125 
Q 45.015625 15.765625 45.015625 23.390625 
Q 45.015625 31 40.078125 35.4375 
Q 35.15625 39.890625 26.703125 39.890625 
Q 22.75 39.890625 18.8125 39.015625 
Q 14.890625 38.140625 10.796875 36.28125 
z
" id="DejaVuSans-53"/>
     </defs>
     <g style="fill:#ffffff;" transform="translate(169.246054 111.287494)scale(0.08 -0.08)">
      <use xlink:href="#DejaVuSans-78"/>
      <use x="74.804688" xlink:href="#DejaVuSans-48"/>
      <use x="138.427734" xlink:href="#DejaVuSans-55"/>
      <use x="202.050781" xlink:href="#DejaVuSans-53"/>
     </g>
    </g>
   </g>
   <g id="text_4">
    <g clip-path="url(#p9f39814526)">
     <!-- N076 -->
     <defs>
      <path d="M 33.015625 40.375 
Q 26.375 40.375 22.484375 35.828125 
Q 18.609375 31.296875 18.609375 23.390625 
Q 18.609375 15.53125 22.484375 10.953125 
Q 26.375 6.390625 33.015625 6.390625 
Q 39.65625 6.390625 43.53125 10.953125 
Q 47.40625 15.53125 47.40625 23.390625 
Q 47.40625 31.296875 43.53125 35.828125 
Q 39.65625 40.375 33.015625 40.375 
z
M 52.59375 71.296875 
L 52.59375 62.3125 
Q 48.875 64.0625 45.09375 64.984375 
Q 41.3125 65.921875 37.59375 65.921875 
Q 27.828125 65.921875 22.671875 59.328125 
Q 17.53125 52.734375 16.796875 39.40625 
Q 19.671875 43.65625 24.015625 45.921875 
Q 28.375 48.1875 33.59375 48.1875 
Q 44.578125 48.1875 50.953125 41.515625 
Q 57.328125 34.859375 57.328125 23.390625 
Q 57.328125 12.15625 50.6875 5.359375 
Q 44.046875 -1.421875 33.015625 -1.421875 
Q 20.359375 -1.421875 13.671875 8.265625 
Q 6.984375 17.96875 6.984375 36.375 
Q 6.984375 53.65625 15.1875 63.9375 
Q 23.390625 74.21875 37.203125 74.21875 
Q 40.921875 74.21875 44.703125 73.484375 
Q 48.484375 72.75 52.59375 71.296875 
z
" id="DejaVuSans-54"/>
     </defs>
     <g style="fill:#ffffff;" transform="translate(100.072499 42.560227)scale(0.08 -0.08)">
      <use xlink:href="#DejaVuSans-78"/>
      <use x="74.804688" xlink:href="#DejaVuSans-48"/>
      <use x="138.427734" xlink:href="#DejaVuSans-55"/>
      <use x="202.050781" xlink:href="#DejaVuSans-54"/>
     </g>
    </g>
   </g>
   <g id="text_5">
    <g clip-path="url(#p9f39814526)">
     <!-- N071 -->
     <g style="fill:#ffffff;" transform="translate(30.898946 111.2875)scale(0.08 -0.08)">
      <use xlink:href="#DejaVuSans-78"/>
      <use x="74.804688" xlink:href="#DejaVuSans-48"/>
      <use x="138.427734" xlink:href="#DejaVuSans-55"/>
      <use x="202.050781" xlink:href="#DejaVuSans-49"/>
     </g>
    </g>
   </g>
   <g id="text_6">
    <g clip-path="url(#p9f39814526)">
     <!-- N072 -->
     <g style="fill:#ffffff;" transform="translate(100.072503 180.014773)scale(0.08 -0.08)">
      <use xlink:href="#DejaVuSans-78"/>
      <use x="74.804688" xlink:href="#DejaVuSans-48"/>
      <use x="138.427734" xlink:href="#DejaVuSans-55"/>
      <use x="202.050781" xlink:href="#DejaVuSans-50"/>
     </g>
    </g>
   </g>
   <g id="text_7">
    <g clip-path="url(#p9f39814526)">
     <!-- N075 -->
     <g style="fill:#ffffff;" transform="translate(169.246054 111.287494)scale(0.08 -0.08)">
      <use xlink:href="#DejaVuSans-78"/>
      <use x="74.804688" xlink:href="#DejaVuSans-48"/>
      <use x="138.427734" xlink:href="#DejaVuSans-55"/>
      <use x="202.050781" xlink:href="#DejaVuSans-53"/>
     </g>
    </g>
   </g>
   <g id="text_8">
    <g clip-path="url(#p9f39814526)">
     <!-- N076 -->
     <g style="fill:#ffffff;" transform="translate(100.072499 42.560227)scale(0.08 -0.08)">
      <use xlink:href="#DejaVuSans-78"/>
      <use x="74.804688" xlink:href="#DejaVuSans-48"/>
      <use x="138.427734" xlink:href="#DejaVuSans-55"/>
      <use x="202.050781" xlink:href="#DejaVuSans-54"/>
     </g>
    </g>
   </g>
  </g>
 </g>
 <defs>
  <clipPath id="p9f39814526">
   <rect height="166.32" width="167.4" x="27" y="25.92"/>
  </clipPath>
 </defs>
</svg>
