<?xml version="1.0" encoding="utf-8" standalone="no"?>
<!DOCTYPE svg PUBLIC "-//W3C//DTD SVG 1.1//EN"
  "http://www.w3.org/Graphics/SVG/1.1/DTD/svg11.dtd">
<svg xmlns:xlink="http://www.w3.org/1999/xlink" width="216pt" height="216pt" viewBox="0 0 216 216" xmlns="http://www.w3.org/2000/svg" version="1.1">
 <metadata>
  <rdf:RDF xmlns:dc="http://purl.org/dc/elements/1.1/" xmlns:cc="http://creativecommons.org/ns#" xmlns:rdf="http://www.w3.org/1999/02/22-rdf-syntax-ns#">
   <cc:Work>
    <dc:type rdf:resource="http://purl.org/dc/dcmitype/StillImage"/>
    <dc:date>2023-08-14T18:44:00.667442</dc:date>
    <dc:format>image/svg+xml</dc:format>
    <dc:creator>
     <cc:Agent>
      <dc:title>Matplotlib v3.7.2, https://matplotlib.org/</dc:title>
     </cc:Agent>
    </dc:creator>
   </cc:Work>
  </rdf:RDF>
 </metadata>
 <defs>
  <style type="text/css">*{stroke-linejoin: round; stroke-linecap: butt}</style>
 </defs>
 <g id="figure_1">
  <g id="patch_1">
   <path d="M 0 216 
L 216 216 
L 216 0 
L 0 0 
z
" style="fill: #ffffff"/>
  </g>
  <g id="axes_1">
   <g id="patch_2">
    <path d="M 50.253408 120.368079 
Q 61.888458 140.658542 77.495816 157.892815 
L 80.164232 155.476297 
Q 81.847182 161.807248 84.01364 168.177615 
Q 77.62289 166.074443 71.269512 163.531356 
L 73.937928 161.114838 
Q 57.982453 143.496161 46.089426 122.755809 
L 50.253408 120.368079 
z
" clip-path="url(#p17965bebe2)" style="stroke: #000000; stroke-linecap: round"/>
   </g>
   <g id="patch_3">
    <path d="M 108.007479 173.595902 
Q 132.46506 169.62102 155.322397 160.439276 
L 153.980502 157.09872 
Q 160.505955 157.712709 167.230609 157.900567 
Q 163.035011 163.158269 158.453484 168.233909 
L 157.111589 164.893352 
Q 133.760388 174.27348 108.777479 178.333739 
L 108.007479 173.595902 
z
" clip-path="url(#p17965bebe2)" style="stroke: #000000; stroke-linecap: round"/>
   </g>
   <g id="patch_4">
    <path d="M 103.193918 166.557169 
Q 139.983259 131.845323 165.418119 88.405144 
L 162.311469 86.586155 
Q 167.874896 83.023386 173.378299 79.165003 
Q 173.152041 85.881997 172.666971 92.649453 
L 169.56032 90.830463 
Q 143.777809 134.864394 106.488023 170.048425 
L 103.193918 166.557169 
z
" clip-path="url(#p17965bebe2)" style="stroke: #000000; stroke-linecap: round"/>
   </g>
   <g id="patch_5">
    <path d="M 85.643377 166.519192 
Q 74.008327 146.228728 58.400969 128.994456 
L 55.732553 131.410973 
Q 54.049603 125.080023 51.883145 118.709656 
Q 58.273895 120.812827 64.627273 123.355915 
L 61.958857 125.772432 
Q 77.914332 143.39111 89.807359 164.131462 
L 85.643377 166.519192 
z
" clip-path="url(#p17965bebe2)" style="stroke: #000000; stroke-linecap: round"/>
   </g>
   <g id="patch_6">
    <path d="M 179.826807 137.285967 
Q 182.822895 114.979347 181.080242 92.674221 
L 177.491179 92.954627 
Q 180.031239 86.920723 182.205366 80.553969 
Q 185.982336 86.120529 189.454722 92.01994 
L 185.865659 92.300346 
Q 187.647995 115.113387 184.584088 137.924936 
L 179.826807 137.285967 
z
" clip-path="url(#p17965bebe2)" style="stroke: #000000; stroke-linecap: round"/>
   </g>
   <g id="patch_7">
    <path d="M 166.236414 155.767154 
Q 141.778832 159.742036 118.921496 168.92378 
L 120.26339 172.264337 
Q 113.737937 171.650347 107.013284 171.462489 
Q 111.208881 166.204788 115.790409 161.129148 
L 117.132303 164.469704 
Q 140.483504 155.089576 165.466413 151.029317 
L 166.236414 155.767154 
z
" clip-path="url(#p17965bebe2)" style="stroke: #000000; stroke-linecap: round"/>
   </g>
   <g id="patch_8">
    <path d="M 166.222685 62.437518 
Q 143.748303 52.003193 119.676633 46.776638 
L 118.912781 50.294667 
Q 113.856115 46.124697 108.395445 42.19566 
Q 114.818561 40.198152 121.458952 38.567902 
L 120.695101 42.085932 
Q 145.286874 47.425414 168.243985 58.083859 
L 166.222685 62.437518 
z
" clip-path="url(#p17965bebe2)" style="stroke: #000000; stroke-linecap: round"/>
   </g>
   <g id="patch_9">
    <path d="M 179.920291 80.874016 
Q 176.924203 103.180636 178.666856 125.485762 
L 182.255919 125.205356 
Q 179.715859 131.23926 177.541732 137.606014 
Q 173.764762 132.039453 170.292376 126.140043 
L 173.881439 125.859637 
Q 172.099103 103.046595 175.16301 80.235047 
L 179.920291 80.874016 
z
" clip-path="url(#p17965bebe2)" style="stroke: #000000; stroke-linecap: round"/>
   </g>
   <g id="patch_10">
    <path d="M 171.049965 77.854303 
Q 134.260624 112.566149 108.825764 156.006327 
L 111.932414 157.825317 
Q 106.368987 161.388085 100.865585 165.246469 
Q 101.091842 158.529475 101.576913 151.762019 
L 104.683563 153.581008 
Q 130.466074 109.547077 167.75586 74.363046 
L 171.049965 77.854303 
z
" clip-path="url(#p17965bebe2)" style="stroke: #000000; stroke-linecap: round"/>
   </g>
   <g id="patch_11">
    <path d="M 108.021187 44.519409 
Q 130.495569 54.953733 154.567239 60.180288 
L 155.331091 56.662259 
Q 160.387756 60.832229 165.848427 64.761266 
Q 159.425311 66.758775 152.78492 68.389024 
L 153.548771 64.870994 
Q 128.956998 59.531512 105.999887 48.873067 
L 108.021187 44.519409 
z
" clip-path="url(#p17965bebe2)" style="stroke: #000000; stroke-linecap: round"/>
   </g>
   <g id="PathCollection_1">
    <defs>
     <path id="m432b324711" d="M 0 -14.142136 
L -12.247449 -7.071068 
L -12.247449 7.071068 
L -0 14.142136 
L 12.247449 7.071068 
L 12.247449 -7.071068 
z
" style="stroke: #008000"/>
    </defs>
    <g clip-path="url(#p17965bebe2)">
     <use xlink:href="#m432b324711" x="94.370327" y="40.352727" style="fill: #008000; stroke: #008000"/>
     <use xlink:href="#m432b324711" x="179.873554" y="151.555784" style="fill: #008000; stroke: #008000"/>
     <use xlink:href="#m432b324711" x="179.873545" y="66.604199" style="fill: #008000; stroke: #008000"/>
     <use xlink:href="#m432b324711" x="94.370339" y="177.807273" style="fill: #008000; stroke: #008000"/>
     <use xlink:href="#m432b324711" x="41.526446" y="109.079998" style="fill: #008000; stroke: #008000"/>
    </g>
   </g>
   <g id="text_1">
    <g clip-path="url(#p17965bebe2)">
     <!-- N071 -->
     <g style="fill: #ffffff" transform="translate(30.898946 111.287498) scale(0.08 -0.08)">
      <defs>
       <path id="DejaVuSans-4e" d="M 628 4666 
L 1478 4666 
L 3547 763 
L 3547 4666 
L 4159 4666 
L 4159 0 
L 3309 0 
L 1241 3903 
L 1241 0 
L 628 0 
L 628 4666 
z
" transform="scale(0.015625)"/>
       <path id="DejaVuSans-30" d="M 2034 4250 
Q 1547 4250 1301 3770 
Q 1056 3291 1056 2328 
Q 1056 1369 1301 889 
Q 1547 409 2034 409 
Q 2525 409 2770 889 
Q 3016 1369 3016 2328 
Q 3016 3291 2770 3770 
Q 2525 4250 2034 4250 
z
M 2034 4750 
Q 2819 4750 3233 4129 
Q 3647 3509 3647 2328 
Q 3647 1150 3233 529 
Q 2819 -91 2034 -91 
Q 1250 -91 836 529 
Q 422 1150 422 2328 
Q 422 3509 836 4129 
Q 1250 4750 2034 4750 
z
" transform="scale(0.015625)"/>
       <path id="DejaVuSans-37" d="M 525 4666 
L 3525 4666 
L 3525 4397 
L 1831 0 
L 1172 0 
L 2766 4134 
L 525 4134 
L 525 4666 
z
" transform="scale(0.015625)"/>
       <path id="DejaVuSans-31" d="M 794 531 
L 1825 531 
L 1825 4091 
L 703 3866 
L 703 4441 
L 1819 4666 
L 2450 4666 
L 2450 531 
L 3481 531 
L 3481 0 
L 794 0 
L 794 531 
z
" transform="scale(0.015625)"/>
      </defs>
      <use xlink:href="#DejaVuSans-4e"/>
      <use xlink:href="#DejaVuSans-30" x="74.804688"/>
      <use xlink:href="#DejaVuSans-37" x="138.427734"/>
      <use xlink:href="#DejaVuSans-31" x="202.050781"/>
     </g>
    </g>
   </g>
   <g id="text_2">
    <g clip-path="url(#p17965bebe2)">
     <!-- N072 -->
     <g style="fill: #ffffff" transform="translate(83.742839 180.014773) scale(0.08 -0.08)">
      <defs>
       <path id="DejaVuSans-32" d="M 1228 531 
L 3431 531 
L 3431 0 
L 469 0 
L 469 531 
Q 828 903 1448 1529 
Q 2069 2156 2228 2338 
Q 2531 2678 2651 2914 
Q 2772 3150 2772 3378 
Q 2772 3750 2511 3984 
Q 2250 4219 1831 4219 
Q 1534 4219 1204 4116 
Q 875 4013 500 3803 
L 500 4441 
Q 881 4594 1212 4672 
Q 1544 4750 1819 4750 
Q 2544 4750 2975 4387 
Q 3406 4025 3406 3419 
Q 3406 3131 3298 2873 
Q 3191 2616 2906 2266 
Q 2828 2175 2409 1742 
Q 1991 1309 1228 531 
z
" transform="scale(0.015625)"/>
      </defs>
      <use xlink:href="#DejaVuSans-4e"/>
      <use xlink:href="#DejaVuSans-30" x="74.804688"/>
      <use xlink:href="#DejaVuSans-37" x="138.427734"/>
      <use xlink:href="#DejaVuSans-32" x="202.050781"/>
     </g>
    </g>
   </g>
   <g id="text_3">
    <g clip-path="url(#p17965bebe2)">
     <!-- N074 -->
     <g style="fill: #ffffff" transform="translate(169.246054 153.763284) scale(0.08 -0.08)">
      <defs>
       <path id="DejaVuSans-34" d="M 2419 4116 
L 825 1625 
L 2419 1625 
L 2419 4116 
z
M 2253 4666 
L 3047 4666 
L 3047 1625 
L 3713 1625 
L 3713 1100 
L 3047 1100 
L 3047 0 
L 2419 0 
L 2419 1100 
L 313 1100 
L 313 1709 
L 2253 4666 
z
" transform="scale(0.015625)"/>
      </defs>
      <use xlink:href="#DejaVuSans-4e"/>
      <use xlink:href="#DejaVuSans-30" x="74.804688"/>
      <use xlink:href="#DejaVuSans-37" x="138.427734"/>
      <use xlink:href="#DejaVuSans-34" x="202.050781"/>
     </g>
    </g>
   </g>
   <g id="text_4">
    <g clip-path="url(#p17965bebe2)">
     <!-- N075 -->
     <g style="fill: #ffffff" transform="translate(169.246045 68.811699) scale(0.08 -0.08)">
      <defs>
       <path id="DejaVuSans-35" d="M 691 4666 
L 3169 4666 
L 3169 4134 
L 1269 4134 
L 1269 2991 
Q 1406 3038 1543 3061 
Q 1681 3084 1819 3084 
Q 2600 3084 3056 2656 
Q 3513 2228 3513 1497 
Q 3513 744 3044 326 
Q 2575 -91 1722 -91 
Q 1428 -91 1123 -41 
Q 819 9 494 109 
L 494 744 
Q 775 591 1075 516 
Q 1375 441 1709 441 
Q 2250 441 2565 725 
Q 2881 1009 2881 1497 
Q 2881 1984 2565 2268 
Q 2250 2553 1709 2553 
Q 1456 2553 1204 2497 
Q 953 2441 691 2322 
L 691 4666 
z
" transform="scale(0.015625)"/>
      </defs>
      <use xlink:href="#DejaVuSans-4e"/>
      <use xlink:href="#DejaVuSans-30" x="74.804688"/>
      <use xlink:href="#DejaVuSans-37" x="138.427734"/>
      <use xlink:href="#DejaVuSans-35" x="202.050781"/>
     </g>
    </g>
   </g>
   <g id="text_5">
    <g clip-path="url(#p17965bebe2)">
     <!-- N076 -->
     <g style="fill: #ffffff" transform="translate(83.742827 42.560227) scale(0.08 -0.08)">
      <defs>
       <path id="DejaVuSans-36" d="M 2113 2584 
Q 1688 2584 1439 2293 
Q 1191 2003 1191 1497 
Q 1191 994 1439 701 
Q 1688 409 2113 409 
Q 2538 409 2786 701 
Q 3034 994 3034 1497 
Q 3034 2003 2786 2293 
Q 2538 2584 2113 2584 
z
M 3366 4563 
L 3366 3988 
Q 3128 4100 2886 4159 
Q 2644 4219 2406 4219 
Q 1781 4219 1451 3797 
Q 1122 3375 1075 2522 
Q 1259 2794 1537 2939 
Q 1816 3084 2150 3084 
Q 2853 3084 3261 2657 
Q 3669 2231 3669 1497 
Q 3669 778 3244 343 
Q 2819 -91 2113 -91 
Q 1303 -91 875 529 
Q 447 1150 447 2328 
Q 447 3434 972 4092 
Q 1497 4750 2381 4750 
Q 2619 4750 2861 4703 
Q 3103 4656 3366 4563 
z
" transform="scale(0.015625)"/>
      </defs>
      <use xlink:href="#DejaVuSans-4e"/>
      <use xlink:href="#DejaVuSans-30" x="74.804688"/>
      <use xlink:href="#DejaVuSans-37" x="138.427734"/>
      <use xlink:href="#DejaVuSans-36" x="202.050781"/>
     </g>
    </g>
   </g>
   <g id="text_6">
    <g clip-path="url(#p17965bebe2)">
     <!-- N071 -->
     <g style="fill: #ffffff" transform="translate(30.898946 111.287498) scale(0.08 -0.08)">
      <use xlink:href="#DejaVuSans-4e"/>
      <use xlink:href="#DejaVuSans-30" x="74.804688"/>
      <use xlink:href="#DejaVuSans-37" x="138.427734"/>
      <use xlink:href="#DejaVuSans-31" x="202.050781"/>
     </g>
    </g>
   </g>
   <g id="text_7">
    <g clip-path="url(#p17965bebe2)">
     <!-- N072 -->
     <g style="fill: #ffffff" transform="translate(83.742839 180.014773) scale(0.08 -0.08)">
      <use xlink:href="#DejaVuSans-4e"/>
      <use xlink:href="#DejaVuSans-30" x="74.804688"/>
      <use xlink:href="#DejaVuSans-37" x="138.427734"/>
      <use xlink:href="#DejaVuSans-32" x="202.050781"/>
     </g>
    </g>
   </g>
   <g id="text_8">
    <g clip-path="url(#p17965bebe2)">
     <!-- N074 -->
     <g style="fill: #ffffff" transform="translate(169.246054 153.763284) scale(0.08 -0.08)">
      <use xlink:href="#DejaVuSans-4e"/>
      <use xlink:href="#DejaVuSans-30" x="74.804688"/>
      <use xlink:href="#DejaVuSans-37" x="138.427734"/>
      <use xlink:href="#DejaVuSans-34" x="202.050781"/>
     </g>
    </g>
   </g>
   <g id="text_9">
    <g clip-path="url(#p17965bebe2)">
     <!-- N075 -->
     <g style="fill: #ffffff" transform="translate(169.246045 68.811699) scale(0.08 -0.08)">
      <use xlink:href="#DejaVuSans-4e"/>
      <use xlink:href="#DejaVuSans-30" x="74.804688"/>
      <use xlink:href="#DejaVuSans-37" x="138.427734"/>
      <use xlink:href="#DejaVuSans-35" x="202.050781"/>
     </g>
    </g>
   </g>
   <g id="text_10">
    <g clip-path="url(#p17965bebe2)">
     <!-- N076 -->
     <g style="fill: #ffffff" transform="translate(83.742827 42.560227) scale(0.08 -0.08)">
      <use xlink:href="#DejaVuSans-4e"/>
      <use xlink:href="#DejaVuSans-30" x="74.804688"/>
      <use xlink:href="#DejaVuSans-37" x="138.427734"/>
      <use xlink:href="#DejaVuSans-36" x="202.050781"/>
     </g>
    </g>
   </g>
  </g>
 </g>
 <defs>
  <clipPath id="p17965bebe2">
   <rect x="27" y="25.92" width="167.4" height="166.32"/>
  </clipPath>
 </defs>
</svg>
