<?xml version="1.0" encoding="utf-8" standalone="no"?>
<!DOCTYPE svg PUBLIC "-//W3C//DTD SVG 1.1//EN"
  "http://www.w3.org/Graphics/SVG/1.1/DTD/svg11.dtd">
<svg xmlns:xlink="http://www.w3.org/1999/xlink" width="216pt" height="216pt" viewBox="0 0 216 216" xmlns="http://www.w3.org/2000/svg" version="1.1">
 <metadata>
  <rdf:RDF xmlns:dc="http://purl.org/dc/elements/1.1/" xmlns:cc="http://creativecommons.org/ns#" xmlns:rdf="http://www.w3.org/1999/02/22-rdf-syntax-ns#">
   <cc:Work>
    <dc:type rdf:resource="http://purl.org/dc/dcmitype/StillImage"/>
    <dc:date>2023-08-14T19:24:03.994786</dc:date>
    <dc:format>image/svg+xml</dc:format>
    <dc:creator>
     <cc:Agent>
      <dc:title>Matplotlib v3.7.2, https://matplotlib.org/</dc:title>
     </cc:Agent>
    </dc:creator>
   </cc:Work>
  </rdf:RDF>
 </metadata>
 <defs>
  <style type="text/css">*{stroke-linejoin: round; stroke-linecap: butt}</style>
 </defs>
 <g id="figure_1">
  <g id="patch_1">
   <path d="M 0 216 
L 216 216 
L 216 0 
L 0 0 
z
" style="fill: #ffffff"/>
  </g>
  <g id="axes_1">
   <g id="patch_2">
    <path d="M 51.647516 119.155187 
Q 69.044285 142.192949 91.208944 160.429581 
L 93.496248 157.64961 
Q 96.096969 163.676629 99.128924 169.678648 
Q 92.51088 168.491397 85.871902 166.916181 
L 88.159206 164.13621 
Q 65.555996 145.538748 47.81699 122.047775 
L 51.647516 119.155187 
z
" clip-path="url(#p6b5b96ae81)" style="stroke: #000000; stroke-linecap: round"/>
   </g>
   <g id="patch_3">
    <path d="M 120.840486 167.751625 
Q 143.990365 150.50433 162.370073 128.458169 
L 159.604964 126.15292 
Q 165.64869 123.591264 171.670207 120.598219 
Q 170.440147 127.20844 168.821993 133.837084 
L 166.056884 131.531835 
Q 147.313515 154.014201 123.708222 171.600793 
L 120.840486 167.751625 
z
" clip-path="url(#p6b5b96ae81)" style="stroke: #000000; stroke-linecap: round"/>
   </g>
   <g id="patch_4">
    <path d="M 120.840486 167.751625 
Q 143.990365 150.50433 162.370073 128.458169 
L 159.604964 126.15292 
Q 165.64869 123.591264 171.670207 120.598219 
Q 170.440147 127.20844 168.821993 133.837084 
L 166.056884 131.531835 
Q 147.313515 154.014201 123.708222 171.600793 
L 120.840486 167.751625 
z
" clip-path="url(#p6b5b96ae81)" style="stroke: #000000; stroke-linecap: round"/>
   </g>
   <g id="patch_5">
    <path d="M 100.578933 167.732086 
Q 83.182164 144.694323 61.017505 126.457691 
L 58.730201 129.237663 
Q 56.129481 123.210643 53.097525 117.208624 
Q 59.71557 118.395875 66.354547 119.971092 
L 64.067243 122.751063 
Q 86.670453 141.348525 104.409459 164.839497 
L 100.578933 167.732086 
z
" clip-path="url(#p6b5b96ae81)" style="stroke: #000000; stroke-linecap: round"/>
   </g>
   <g id="patch_6">
    <path d="M 169.733071 119.135641 
Q 146.583192 136.382937 128.203484 158.429097 
L 130.968593 160.734347 
Q 124.924867 163.296003 118.90335 166.289048 
Q 120.13341 159.678826 121.751564 153.050183 
L 124.516672 155.355432 
Q 143.260042 132.873066 166.865335 115.286474 
L 169.733071 119.135641 
z
" clip-path="url(#p6b5b96ae81)" style="stroke: #000000; stroke-linecap: round"/>
   </g>
   <g id="patch_7">
    <path d="M 169.733071 119.135641 
Q 146.583192 136.382937 128.203484 158.429097 
L 130.968593 160.734347 
Q 124.924867 163.296003 118.90335 166.289048 
Q 120.13341 159.678826 121.751564 153.050183 
L 124.516672 155.355432 
Q 143.260042 132.873066 166.865335 115.286474 
L 169.733071 119.135641 
z
" clip-path="url(#p6b5b96ae81)" style="stroke: #000000; stroke-linecap: round"/>
   </g>
   <g id="patch_8">
    <path d="M 169.752484 99.004808 
Q 152.355716 75.967047 130.191057 57.730417 
L 127.903753 60.510389 
Q 125.303033 54.483369 122.271078 48.481351 
Q 128.889122 49.668601 135.528099 51.243817 
L 133.240795 54.023789 
Q 155.844004 72.621249 173.58301 96.112219 
L 169.752484 99.004808 
z
" clip-path="url(#p6b5b96ae81)" style="stroke: #000000; stroke-linecap: round"/>
   </g>
   <g id="patch_9">
    <path d="M 120.821069 50.427913 
Q 138.217837 73.465674 160.382496 91.702304 
L 162.6698 88.922333 
Q 165.27052 94.949352 168.302475 100.95137 
Q 161.684431 99.76412 155.045454 98.188904 
L 157.332757 95.408933 
Q 134.729548 76.811472 116.990543 53.320502 
L 120.821069 50.427913 
z
" clip-path="url(#p6b5b96ae81)" style="stroke: #000000; stroke-linecap: round"/>
   </g>
   <g id="PathCollection_1">
    <defs>
     <path id="m196a3dad80" d="M 0 -14.142136 
L -12.247449 -7.071068 
L -12.247449 7.071068 
L -0 14.142136 
L 12.247449 7.071068 
L 12.247449 -7.071068 
z
" style="stroke: #008000"/>
    </defs>
    <g clip-path="url(#p6b5b96ae81)">
     <use xlink:href="#m196a3dad80" x="110.700003" y="177.807273" style="fill: #008000; stroke: #008000"/>
     <use xlink:href="#m196a3dad80" x="41.526446" y="109.08" style="fill: #008000; stroke: #008000"/>
     <use xlink:href="#m196a3dad80" x="179.873554" y="109.079994" style="fill: #008000; stroke: #008000"/>
     <use xlink:href="#m196a3dad80" x="110.699999" y="40.352727" style="fill: #008000; stroke: #008000"/>
    </g>
   </g>
   <g id="text_1">
    <g clip-path="url(#p6b5b96ae81)">
     <!-- N077 -->
     <g style="fill: #ffffff" transform="translate(30.898946 111.2875) scale(0.08 -0.08)">
      <defs>
       <path id="DejaVuSans-4e" d="M 628 4666 
L 1478 4666 
L 3547 763 
L 3547 4666 
L 4159 4666 
L 4159 0 
L 3309 0 
L 1241 3903 
L 1241 0 
L 628 0 
L 628 4666 
z
" transform="scale(0.015625)"/>
       <path id="DejaVuSans-30" d="M 2034 4250 
Q 1547 4250 1301 3770 
Q 1056 3291 1056 2328 
Q 1056 1369 1301 889 
Q 1547 409 2034 409 
Q 2525 409 2770 889 
Q 3016 1369 3016 2328 
Q 3016 3291 2770 3770 
Q 2525 4250 2034 4250 
z
M 2034 4750 
Q 2819 4750 3233 4129 
Q 3647 3509 3647 2328 
Q 3647 1150 3233 529 
Q 2819 -91 2034 -91 
Q 1250 -91 836 529 
Q 422 1150 422 2328 
Q 422 3509 836 4129 
Q 1250 4750 2034 4750 
z
" transform="scale(0.015625)"/>
       <path id="DejaVuSans-37" d="M 525 4666 
L 3525 4666 
L 3525 4397 
L 1831 0 
L 1172 0 
L 2766 4134 
L 525 4134 
L 525 4666 
z
" transform="scale(0.015625)"/>
      </defs>
      <use xlink:href="#DejaVuSans-4e"/>
      <use xlink:href="#DejaVuSans-30" x="74.804688"/>
      <use xlink:href="#DejaVuSans-37" x="138.427734"/>
      <use xlink:href="#DejaVuSans-37" x="202.050781"/>
     </g>
    </g>
   </g>
   <g id="text_2">
    <g clip-path="url(#p6b5b96ae81)">
     <!-- N078 -->
     <g style="fill: #ffffff" transform="translate(100.072503 180.014773) scale(0.08 -0.08)">
      <defs>
       <path id="DejaVuSans-38" d="M 2034 2216 
Q 1584 2216 1326 1975 
Q 1069 1734 1069 1313 
Q 1069 891 1326 650 
Q 1584 409 2034 409 
Q 2484 409 2743 651 
Q 3003 894 3003 1313 
Q 3003 1734 2745 1975 
Q 2488 2216 2034 2216 
z
M 1403 2484 
Q 997 2584 770 2862 
Q 544 3141 544 3541 
Q 544 4100 942 4425 
Q 1341 4750 2034 4750 
Q 2731 4750 3128 4425 
Q 3525 4100 3525 3541 
Q 3525 3141 3298 2862 
Q 3072 2584 2669 2484 
Q 3125 2378 3379 2068 
Q 3634 1759 3634 1313 
Q 3634 634 3220 271 
Q 2806 -91 2034 -91 
Q 1263 -91 848 271 
Q 434 634 434 1313 
Q 434 1759 690 2068 
Q 947 2378 1403 2484 
z
M 1172 3481 
Q 1172 3119 1398 2916 
Q 1625 2713 2034 2713 
Q 2441 2713 2670 2916 
Q 2900 3119 2900 3481 
Q 2900 3844 2670 4047 
Q 2441 4250 2034 4250 
Q 1625 4250 1398 4047 
Q 1172 3844 1172 3481 
z
" transform="scale(0.015625)"/>
      </defs>
      <use xlink:href="#DejaVuSans-4e"/>
      <use xlink:href="#DejaVuSans-30" x="74.804688"/>
      <use xlink:href="#DejaVuSans-37" x="138.427734"/>
      <use xlink:href="#DejaVuSans-38" x="202.050781"/>
     </g>
    </g>
   </g>
   <g id="text_3">
    <g clip-path="url(#p6b5b96ae81)">
     <!-- N080 -->
     <g style="fill: #ffffff" transform="translate(169.246054 111.287494) scale(0.08 -0.08)">
      <use xlink:href="#DejaVuSans-4e"/>
      <use xlink:href="#DejaVuSans-30" x="74.804688"/>
      <use xlink:href="#DejaVuSans-38" x="138.427734"/>
      <use xlink:href="#DejaVuSans-30" x="202.050781"/>
     </g>
    </g>
   </g>
   <g id="text_4">
    <g clip-path="url(#p6b5b96ae81)">
     <!-- N081 -->
     <g style="fill: #ffffff" transform="translate(100.072499 42.560227) scale(0.08 -0.08)">
      <defs>
       <path id="DejaVuSans-31" d="M 794 531 
L 1825 531 
L 1825 4091 
L 703 3866 
L 703 4441 
L 1819 4666 
L 2450 4666 
L 2450 531 
L 3481 531 
L 3481 0 
L 794 0 
L 794 531 
z
" transform="scale(0.015625)"/>
      </defs>
      <use xlink:href="#DejaVuSans-4e"/>
      <use xlink:href="#DejaVuSans-30" x="74.804688"/>
      <use xlink:href="#DejaVuSans-38" x="138.427734"/>
      <use xlink:href="#DejaVuSans-31" x="202.050781"/>
     </g>
    </g>
   </g>
   <g id="text_5">
    <g clip-path="url(#p6b5b96ae81)">
     <!-- N077 -->
     <g style="fill: #ffffff" transform="translate(30.898946 111.2875) scale(0.08 -0.08)">
      <use xlink:href="#DejaVuSans-4e"/>
      <use xlink:href="#DejaVuSans-30" x="74.804688"/>
      <use xlink:href="#DejaVuSans-37" x="138.427734"/>
      <use xlink:href="#DejaVuSans-37" x="202.050781"/>
     </g>
    </g>
   </g>
   <g id="text_6">
    <g clip-path="url(#p6b5b96ae81)">
     <!-- N078 -->
     <g style="fill: #ffffff" transform="translate(100.072503 180.014773) scale(0.08 -0.08)">
      <use xlink:href="#DejaVuSans-4e"/>
      <use xlink:href="#DejaVuSans-30" x="74.804688"/>
      <use xlink:href="#DejaVuSans-37" x="138.427734"/>
      <use xlink:href="#DejaVuSans-38" x="202.050781"/>
     </g>
    </g>
   </g>
   <g id="text_7">
    <g clip-path="url(#p6b5b96ae81)">
     <!-- N080 -->
     <g style="fill: #ffffff" transform="translate(169.246054 111.287494) scale(0.08 -0.08)">
      <use xlink:href="#DejaVuSans-4e"/>
      <use xlink:href="#DejaVuSans-30" x="74.804688"/>
      <use xlink:href="#DejaVuSans-38" x="138.427734"/>
      <use xlink:href="#DejaVuSans-30" x="202.050781"/>
     </g>
    </g>
   </g>
   <g id="text_8">
    <g clip-path="url(#p6b5b96ae81)">
     <!-- N081 -->
     <g style="fill: #ffffff" transform="translate(100.072499 42.560227) scale(0.08 -0.08)">
      <use xlink:href="#DejaVuSans-4e"/>
      <use xlink:href="#DejaVuSans-30" x="74.804688"/>
      <use xlink:href="#DejaVuSans-38" x="138.427734"/>
      <use xlink:href="#DejaVuSans-31" x="202.050781"/>
     </g>
    </g>
   </g>
  </g>
 </g>
 <defs>
  <clipPath id="p6b5b96ae81">
   <rect x="27" y="25.92" width="167.4" height="166.32"/>
  </clipPath>
 </defs>
</svg>
